<svg width="80" height="101" viewBox="0 0 80 101" xmlns="http://www.w3.org/2000/svg"><title>billing-pirateship</title><g fill="#8C8C8C" fill-rule="evenodd"><path d="M54.046 41.056c-.003.012-.01.025-.01.037.001.004.019.007.028.01.003-.011.009-.024.007-.035 0-.005-.016-.008-.025-.012zm-.438 2.913c-.249-.042-.249-.042-.282.205.115-.04.22-.09.282-.205zm-26.69 6.507v-.088c.003-.058-.039-.08-.082-.092-.061-.017-.132-.012-.17.037-.058.075.057.275.157.279.091.003.068-.084.095-.136zm13.654.376c-.138.113-.188.24-.234.37-.013.035-.002.065.036.072.026.005.066.003.082-.013.103-.105.122-.238.116-.43zm13.725-9.292c-.05.24-.014.39.118.513.013.013.056-.002.085-.008.038-.007.054-.032.045-.068-.037-.15-.141-.257-.248-.437zm-19.7 8.519c-.006-.04-.008-.086-.02-.13-.011-.042-.036-.09-.09-.078-.039.008-.091.03-.107.062a.374.374 0 0 0-.032.172c.003.083.083.133.16.115.075-.017.083-.074.088-.141zm-.24-1.074a.973.973 0 0 0-.028.477c.008.051.054.074.1.064.022-.005.05-.042.053-.067a.727.727 0 0 0-.125-.474zm20.562-7.883l-.062.067c.13.143.257.288.393.425.018.02.089.004.124-.015.056-.03.025-.084-.005-.11-.148-.126-.3-.245-.45-.367zm1.214 2.19c.005-.117-.193-.354-.297-.359-.079-.003-.193.114-.163.176.052.107.113.21.182.307.017.024.086.033.12.02.068-.027.132-.069.158-.144zm-.378 1.735l.004.093c.223.005.446.035.67-.004.052-.009.064-.06.043-.106-.098-.21-.205-.257-.397-.164-.11.053-.214.12-.32.18zm-.145-2.422c-.006-.029-.004-.064-.02-.085a25.53 25.53 0 0 0-.4-.498c-.037-.044-.083-.025-.12.006-.036.032-.047.078-.02.121.105.167.213.333.322.498.016.025.042.057.064.059a.265.265 0 0 0 .128-.027c.022-.01.031-.048.046-.074zM34.027 19.657c-.209-.244-.405-.48-.702-.624-.09.522-.013.475.367.577.099.026.197.09.335.047zM25.857 46.5c-.123-.535-.123-.535-.3-.73-.047.2-.097.39-.135.583-.037.192-.007.221.176.195.074-.01.148-.027.259-.048zm30.298-3.74c.036.063.062.118.097.165.162.216.19.219.403.064.222-.161.218-.24-.016-.402-.071-.05-.142-.06-.213-.016-.09.057-.175.122-.271.19zm-1.86 2.258c.223.037.342.065.463.074.144.01.328.111.422-.026.074-.108-.056-.255-.1-.383-.048-.138-.113-.151-.24-.062-.16.111-.315.23-.544.397zm1.984-2.722a2.608 2.608 0 0 0-.61-.548c-.06-.042-.113.005-.163.04-.064.047-.056.101-.016.155.101.134.202.268.307.398.151.186.17.187.373.055.037-.024.066-.06.109-.1zm-.221 1.512c.074.13.146.261.226.387.083.13.133.144.26.086.232-.104.245-.152.096-.364a4.65 4.65 0 0 0-.134-.183c-.143-.186-.167-.19-.356-.042-.034.026-.056.069-.092.116zm-20.931 6.327c.054-.005.1-.007.145-.013.318-.045.356-.106.258-.412-.038-.12-.082-.152-.193-.123a6 6 0 0 0-.347.103c-.06.019-.112.061-.116.125-.012.198.05.352.253.32zM55.613 43.7c-.015-.15-.104-.257-.18-.37-.048-.073-.117-.08-.195-.039-.28.151-.309.21-.202.491.03.08.048.175.151.228.157-.078.303-.18.426-.31zM19.95 47.498c.144.037.29.078.437.112.178.042.213.02.256-.153.015-.06.03-.119.04-.179.011-.07-.025-.117-.088-.138a1.02 1.02 0 0 0-.177-.043c-.383-.058-.404-.04-.468.4zm35.221-4.53c-.015-.128-.083-.211-.14-.3-.073-.114-.146-.229-.226-.339-.048-.065-.113-.097-.197-.058-.082.037-.112.097-.08.18.082.213.16.425.25.634.035.08.107.098.184.039.071-.055.143-.108.209-.157zm-19.174 7.008c.135-.02.27-.036.404-.063.063-.012.11-.063.097-.131a2.77 2.77 0 0 0-.095-.351c-.027-.08-.09-.116-.179-.086a.607.607 0 0 1-.087.023c-.44.076-.36.198-.248.537.014.043.055.071.108.07zm-8.832-.64c-.557-.147-.549-.051-.58.42l.002.046c.007.13.063.18.206.185.186.007.252-.035.292-.21.033-.146.054-.295.08-.44zm26.716-4.445l-.032-.136c-.104-.491-.193-.41-.524-.193-.078.051-.142.115-.136.218.023.368.097.408.413.308a.942.942 0 0 0 .208-.086c.034-.021.048-.074.07-.11zm-9.854.356c-.28.04-.446.15-.546.365-.058.125-.141.238-.21.358-.026.049-.082.105-.024.157.027.025.088.027.13.019.105-.021.208-.052.311-.083.06-.019.112-.052.134-.116.075-.214.168-.424.205-.7zm10.135-.506c.242-.146.425-.28.605-.419a.32.32 0 0 0 .06-.066c.05-.066 0-.215-.081-.224-.152-.016-.306-.041-.455-.023-.25.031-.317.163-.24.416.028.087.06.172.111.316zm-18.053 3.648c-.106-.023-.185.039-.273.052-.237.035-.25.146-.203.316.036.129.027.274.116.385.633-.037.56-.186.422-.644-.013-.041-.043-.077-.062-.109zM18.28 44.023c.178-.156.28-.343.38-.528.053-.1.01-.187-.099-.197-.24-.022-.48-.038-.753-.059.081.326.242.564.472.784zm18.53 4.134c-.007.002-.083.014-.155.037-.209.064-.234.108-.177.332.122.485.05.441.571.277.078-.024.112-.096.085-.183-.042-.13-.082-.26-.127-.388-.02-.057-.053-.11-.197-.075zm-.424-.195c.572-.09.513-.134.345-.604-.015-.043-.025-.09-.048-.128a.123.123 0 0 0-.07-.054c-.138-.032-.281-.028-.394.061-.089.07-.018.17.004.254.041.162.054.333.163.47zm9.788-.449c0 .008-.005.055.002.1.006.045.027.087.083.092.192.018.359-.081.36-.254.004-.294.125-.46.42-.494.028-.004.057-.027.077-.048.02-.02.041-.05.04-.075-.002-.02-.037-.057-.054-.055-.121.012-.244.024-.364.05-.516.115-.516.117-.564.684zm11.37-2.315c-.1-.225-.395-.64-.5-.701a.14.14 0 0 0-.084-.018c-.123.02-.248.068-.313.166-.072.109.058.184.108.272.125.22.311.32.565.292.072-.007.144-.007.223-.011zm-20.32 3.852c-.155.049-.301.092-.447.139-.09.028-.111.093-.087.18.034.117.065.236.103.352.02.061.066.103.139.088.554-.12.635.013.372-.635-.011-.028-.033-.052-.08-.124zm-2.434.363c.182-.006.314-.04.445-.09.183-.069.21-.088.173-.256-.106-.505-.068-.49-.55-.328-.141.048-.176.103-.154.239.021.135.053.27.086.435zm21.296-4.933c-.002-.014.002-.032-.004-.043-.088-.155-.125-.377-.305-.426-.143-.04-.257.134-.383.215-.106.068-.129.163-.081.276.152.364.095.41.494.188.08-.044.16-.086.237-.134.021-.014.028-.05.042-.076zm-35.97 3.995c.313.016.324.007.389-.3.01-.044.02-.09.014-.134-.006-.041-.026-.106-.054-.114-.173-.053-.342-.134-.53-.116-.062.006-.118.027-.144.09a2.132 2.132 0 0 0-.064.171c-.102.329-.076.37.253.394l.137.009zm15.973-.422c-.117-.279-.114-.547-.26-.78a.939.939 0 0 0-.48.137c.051.22.096.428.15.635.035.137.092.17.233.132.102-.027.199-.068.357-.124zm-15.346-3.326c.09.04.157.076.227.097.152.045.194.026.23-.122.06-.251.11-.504.162-.756a.35.35 0 0 0 .003-.136c-.02-.1-.102-.149-.188-.177-.104-.034-.13.064-.15.126-.098.316-.187.634-.284.968zm4.268 1.868c.092-.073.103-.184.128-.286.059-.238.114-.478.164-.718.024-.116.107-.259-.006-.344-.102-.077-.233.013-.349.05-.029.009-.06.016-.088.025-.084.03-.126.094-.111.177.06.347.125.693.193 1.04.004.022.044.037.069.056zm15.895 4.566c.272.03.528-.095.795-.133.036-.005.08-.05.097-.088.06-.132.184-.284.09-.413-.07-.095-.228-.003-.346.022-.164.035-.33.064-.494.1-.1.022-.162.085-.168.19-.006.103-.054.21.026.322zm.08-.916c.008.077.072.092.132.083.227-.033.452-.088.68-.109.284-.025.387-.21.447-.446.016-.063-.036-.12-.107-.105-.314.066-.629.131-.94.208-.152.037-.22.17-.212.369zm-16.347-5.44c-.015.183.073.272.218.223.53-.177.55.02.349-.605-.042-.131-.09-.26-.131-.392-.025-.077-.058-.15-.153-.131a.155.155 0 0 0-.123.122l-.16.783zm10.392 2.676c-.557.128-.557.128-.461.637l.007.045c.065.349.07.352.416.236.044-.015.089-.026.132-.041.088-.03.121-.101.101-.18-.059-.235-.062-.487-.195-.697zm-14.679-1.377c.604.149.567.058.653-.417.025-.134.058-.267.08-.401.013-.083-.02-.142-.11-.17-.337-.102-.327-.099-.417.202-.077.26-.19.511-.206.786zm25.744 3.19c.283-.076.561-.133.83-.249.18-.078.277-.177.25-.378-.008-.06-.012-.12-.067-.17-.218.05-.442.098-.665.151-.377.09-.39.108-.388.489 0 .043.021.086.04.157zm-32.844-5.762c.07-.016.088-.078.114-.128.075-.15.152-.302.216-.457.168-.41.166-.415-.278-.461-.167-.018-.334-.065-.502-.012-.05.2.1.336.16.5.047.13.105.256.156.384.029.072.055.144.134.174zm14.933 6.796c-.124-.01-.2-.019-.274-.021-.153-.005-.306-.01-.458-.007-.172.003-.208.035-.254.201-.109.393-.075.44.342.472.06.004.122.01.183.01.404-.01.38-.058.41-.342.01-.09.029-.18.051-.313zm17.874-.724a.962.962 0 0 0-.062.413c.005.073.062.11.127.094.22-.057.438-.124.658-.185.385-.109.386-.108.37-.536-.002-.024-.03-.048-.05-.081l-1.043.295zm11.054-6.563c-.158.055-.274.154-.395.246-.09.068-.092.145-.024.232.483.618.29.643 1.056.218.012-.007.02-.021.042-.045-.197-.25-.444-.447-.68-.651zm-29.332 6.991c.483.01.483.01.538-.432.006-.045.017-.09.017-.136 0-.069-.044-.124-.105-.131a4.259 4.259 0 0 0-.5-.034c-.241-.001-.242.005-.306.244-.12.443-.097.477.343.49h.013zm18.052-4.163c-.057.013-.159.047-.264.06-.17.02-.27.101-.305.275-.032.164-.085.324-.123.486-.038.164.026.23.197.171.198-.069.482-.003.583-.2.099-.19.083-.44.108-.666.01-.096-.061-.127-.196-.126zm-1.496 4.615c.406-.085.793-.172 1.183-.247.131-.025.183-.092.179-.218-.004-.103.041-.215-.057-.308-.102.015-.209.025-.313.048-.27.058-.538.122-.807.18-.082.017-.139.056-.166.136-.037.116-.08.232-.019.41zm1.103-4.84c.152-.02.283-.04.414-.056.163-.02.237-.119.259-.272.035-.242.076-.482.112-.723.013-.088-.045-.142-.138-.121-.118.026-.234.062-.352.095-.082.023-.126.079-.143.16-.06.294-.136.587-.152.917zm.333 3.469l-.001-.156c-.005-.09-.06-.134-.151-.113-.297.068-.593.136-.888.21-.088.022-.185.056-.209.157a2.124 2.124 0 0 0-.05.36.074.074 0 0 0 .093.071c.356-.081.71-.163 1.066-.246.085-.02.122-.083.13-.166l.01-.117zM28.948 50.89c0-.008.367-.017.55-.025.202 0 .175-.049.193-.2.005-.046.007-.092.01-.138.003-.107-.042-.18-.154-.183-.305-.01-.61-.016-.916-.023-.088-.002-.138.04-.16.127-.098.398-.15.515.34.45.045-.006.092-.006.137-.008zm18.244-6.117c0-.122.006-.245 0-.367-.008-.114-.056-.146-.186-.134-.046.004-.091.017-.136.016-.181-.002-.286.086-.32.26-.044.224-.091.449-.126.675-.027.174.027.218.203.192.015-.003.03-.003.045-.007.614-.179.53-.035.52-.635zm-18.578 5.264c.328.006.675.025 1.024.003.088-.005.133-.064.14-.15.034-.404.064-.447-.38-.475-.076-.005-.151-.016-.228-.018-.494-.016-.561-.142-.59.563-.002.012.01.025.034.077zm15.008-3.62c-.428.03-.772.089-.946.495-.06.14-.161.262-.235.396-.03.058-.106.115-.04.196 1.09-.202.837-.048 1.22-1.086zm-23.777 3.278c.313.022.35-.008.413-.311.02-.106.044-.21.065-.316.019-.087-.013-.154-.099-.177-.223-.058-.467-.133-.674-.03-.167.084-.133.329-.208.494-.012.027-.014.06-.019.09-.018.11.026.184.132.201.136.023.274.035.39.049zm24.31-3.749c.318-.068.57-.12.82-.176.063-.014.115-.058.127-.122.049-.283.145-.562.112-.885-.432.108-.827.203-.908.716-.02.134-.083.261-.151.467zm1.75 1.392c.02-.27-.017-.309-.268-.262-.12.023-.238.068-.36.082-.198.022-.294.125-.337.317-.105.472-.248.657.41.456.014-.005.03-.007.045-.01.473-.109.473-.109.51-.583zm1.318-1.316h.006c-.005-.108-.005-.216-.018-.322-.008-.067-.061-.116-.128-.101-.21.045-.417.1-.625.152-.085.022-.12.087-.128.17-.07.827-.213.746.62.587l.045-.01c.176-.05.219-.103.228-.292.003-.061 0-.123 0-.184zm-20.92-8.89c-.087.045-.103.12-.12.196-.052.255-.114.51-.154.767-.032.206-.135.404-.082.621.195.035.39.075.586.104.17.026.221-.024.193-.207a8.297 8.297 0 0 0-.359-1.38c-.012-.037-.042-.068-.063-.102zm16.163 12.914c.579-.053 1.078-.188 1.581-.301.033-.008.07-.061.08-.1a2.39 2.39 0 0 0 .072-.312c.013-.084-.056-.14-.144-.12-.403.091-.804.186-1.206.279-.129.03-.223.097-.269.224l-.114.33zM26.504 35.947c.121.084.263.055.396.057.193.003.412.133.57 0 .15-.125.117-.366.168-.555.03-.109.089-.228.019-.382-.173.041-.347.077-.518.127-.634.184-.555.08-.635.753zm17.477 14.117c-.461.09-.923.188-1.387.263-.26.041-.356.207-.413.427-.024.094.021.159.113.14.512-.1 1.023-.204 1.534-.306.084-.017.141-.064.16-.144.027-.117.072-.236-.007-.38zm-2.354-1.334c.25.078.448-.036.653-.078.483-.1.482-.105.677-.56.006-.015.018-.027.02-.042.019-.113.164-.223.068-.33-.072-.08-.205-.006-.307.011-.15.026-.3.066-.447.106-.104.028-.205.065-.265.168-.137.236-.282.47-.399.725zm2.052-1.542c.349.009.664-.102.984-.184.063-.016.113-.056.13-.117.07-.26.178-.513.17-.796-1.153.195-.912.045-1.284 1.097zm-15.098 5.25c-.033.584-.033.585.452.573.076-.001.153-.005.229-.017a.137.137 0 0 0 .12-.12c.042-.29.085-.578.119-.868.015-.139-.04-.184-.194-.175-.17.01-.338.025-.507.036-.107.007-.17.062-.18.168-.019.168-.033.337-.04.404zm40.938-16.491c-.291-.143-.52-.259-.752-.369a3.753 3.753 0 0 0-.379-.16c-.099-.035-.192.037-.182.14.033.35.069.7.11 1.05.008.066-.012.157.123.2a23.58 23.58 0 0 0 1.08-.861zm-53.243 14.98c-.014.46.038.931.156 1.394.048.185.093.209.297.218.144.006.19-.04.177-.191-.027-.29-.047-.582-.09-.87-.049-.334-.106-.668-.251-.977-.045-.095-.078-.242-.192-.23-.144.016-.088.17-.095.268-.009.122-.002.246-.002.388zm42.53-6.382c-.105-.09-.182-.165-.269-.227-.172-.122-.293-.377-.507-.362-.198.014-.387.169-.579.263a.234.234 0 0 0-.073.054c-.03.035-.051.082-.018.123.192.237.386.474.583.707.042.05.11.058.166.02.24-.16.494-.305.698-.578zM50.928 9.77c-.002-.136-.103-.164-.166-.218-.348-.298-.702-.589-1.051-.886-.14-.119-.27-.247-.406-.371-.049-.045-.111-.07-.164-.031-.045.033-.1.095-.099.143.005.197.033.394.048.592.01.123.08.196.188.232.547.18 1.094.358 1.65.539zm-7.772 38.666c.178-.032.297-.048.414-.076.222-.052.44-.125.665-.16.18-.028.274-.119.307-.284.103-.513.32-.697-.429-.49-.161.045-.327.074-.49.109-.08.016-.139.056-.17.133-.1.237-.23.462-.297.768zm-28.971 3.61c.113.023.217.049.322.064.123.018.177-.032.166-.149-.017-.168-.04-.336-.055-.504-.03-.322-.056-.644-.087-.965a1.59 1.59 0 0 0-.178-.569c-.018-.036-.059-.08-.094-.084-.065-.009-.114.041-.14.1a.466.466 0 0 0-.053.173c-.01.645-.033 1.291.119 1.934zm10.309-6.194a7.66 7.66 0 0 0-.071.017l-.279 1.3c-.054.256-.103.512-.157.767-.019.09.008.15.1.17.075.014.152.026.228.035.34.041.399.114.48-.346.034-.202-.003-.398-.036-.594a51.88 51.88 0 0 0-.163-.906c-.028-.149-.068-.295-.102-.443zm2.614 7.201c.448.001.453.002.507-.468a6.93 6.93 0 0 0 .046-.689c.004-.239-.022-.258-.248-.289a4.52 4.52 0 0 1-.317-.052c-.091-.019-.15.01-.172.1-.092.371-.187.743-.271 1.118-.05.223-.007.27.225.28.077.002.154 0 .23 0zm13.474-3.015a11.2 11.2 0 0 0-1.197.257c-.101.027-.15.091-.169.192-.058.302-.12.602-.18.904-.01.06-.015.122.054.192l.694-.153a.24.24 0 0 0 .177-.13c.206-.406.446-.796.62-1.262zm-14.122-1.78c-.12-.373-.226-.706-.335-1.04-.156-.476-.102-.478-.64-.353-.03.007-.06.008-.09.018-.06.02-.109.059-.124.123-.082.327-.186.651-.091.995.03.112.076.192.207.209.334.044.667.09 1.073.047zm5.052 2.385c-.087-.314-.17-.608-.25-.902-.028-.1-.092-.152-.195-.164-.258-.03-.516-.066-.774-.096-.104-.012-.183.033-.197.143-.041.35-.08.7-.114 1.05-.006.064.028.123.104.123.473-.003.94-.066 1.426-.154zm-.63-32.8c-.655.013-.647-.137-.759.537-.005.03-.017.059-.023.089-.033.177-.022.21.162.257.636.168 1.274.328 1.911.489.11.027.169-.037.158-.155-.01-.098-.037-.178-.15-.199a5.734 5.734 0 0 1-.362-.072c-.234-.058-.338-.181-.342-.42-.002-.09.019-.182.037-.271.023-.115-.029-.183-.132-.2-.197-.028-.396-.044-.5-.055zM42.686 33.42c-.103.108-.116.228-.139.342l-.328 1.671c-.011.06-.029.12-.035.18-.006.064.01.129.073.156.232.102.451.24.722.285.078-.476.153-.93.23-1.383.018-.106.042-.209-.014-.313-.165-.309-.299-.636-.51-.938zm2.433-25.4l2.919.812c.093-.176.038-.33.037-.48-.002-.146-.043-.261-.2-.327-.151-.064-.213-.21-.243-.368-.018-.093-.084-.116-.172-.101-.075.013-.153.016-.228.029-.605.1-1.21.2-1.814.307-.098.017-.212.02-.299.129zM23.566 52.968c.037-.118.074-.234.109-.352.051-.176.113-.346-.045-.516-.051-.055-.041-.176-.043-.267-.006-.293-.003-.586-.004-.878-.001-.156.005-.306.106-.44.103-.136.247-.096.381-.11.064-.006.125-.032.14-.098.088-.386.212-.764.251-1.195h-.574c-.088 0-.141.053-.165.132-.021.074-.036.15-.052.225-.114.542-.23 1.084-.342 1.627-.127.616-.25 1.233-.38 1.876.218.035.412.048.618-.004zm.193-11.329c-.1.72-.027 5.25.03 5.579.062-.003.066-.053.076-.097l.439-2.077a1.163 1.163 0 0 0-.01-.459c-.055-.287-.104-.575-.156-.863l-.379-2.083zm2.27 8.914c-.018.032-.045.064-.057.101-.25.74-.498 1.482-.744 2.224-.009.025.006.058.012.11.296.046.601.047.906.054.1.002.174-.05.198-.155.096-.42.192-.838.291-1.255.035-.146.023-.27-.105-.37a1.184 1.184 0 0 1-.38-.566c-.019-.056-.04-.118-.12-.143zM36.33 21.7c-.197-.18-.363-.336-.533-.487-.276-.245-.524-.542-.84-.714-.316-.171-.7-.216-1.054-.314a6.17 6.17 0 0 0-.447-.106c-.067-.013-.128.03-.129.097-.001.184.014.368.017.553.003.163.08.235.243.277.861.22 1.722.444 2.57.717.035.012.082-.01.173-.023zM49.186 9.802c0 .117.006.209-.001.3-.019.206.087.298.274.357.557.175 1.094.401 1.636.617.494.196 1.002.357 1.546.549-.058-.26-.216-.434-.3-.64-.077-.189-.225-.279-.407-.34-.816-.271-1.63-.547-2.445-.819-.085-.028-.173-.062-.303-.024zM20.72 48.535c.415.04.794.08 1.174.111.182.015.366.018.55.02.08.001.157-.024.156-.124a52.751 52.751 0 0 0-.019-1.1c-.003-.102-.065-.17-.173-.179-.412-.033-.823-.065-1.235-.095-.102-.008-.175.028-.198.14-.081.401-.166.8-.255 1.227zm15.382-39.84a6.95 6.95 0 0 1 .026-.076c-.099-.069-.197-.139-.297-.206-.548-.367-1.097-.731-1.645-1.1-.267-.18-.53-.366-.796-.547-.088-.06-.172-.125-.291-.118-.108.006-.184.053-.184.156.002.338.01.675.017 1.013.002.09.057.133.139.154.089.024.176.054.265.075.522.123 1.044.243 1.566.365.4.093.8.189 1.2.284zm-3.738 12c0-.27-.002-.498.001-.726.002-.129-.069-.2-.18-.23a23.651 23.651 0 0 0-.711-.187c-.446-.11-.893-.217-1.339-.326-.105-.025-.185.004-.21.115-.052.223-.098.448-.144.674-.023.114.043.172.144.193.18.037.361.067.541.103.615.123 1.23.248 1.898.384zM56.79 46.162l-2.538-.165c-.092-.006-.152.048-.14.137.044.319.092.637.142.955.01.06.03.12.052.176.102.249.288.344.552.29a.77.77 0 0 0 .286-.141c.176-.123.358-.238.528-.369.35-.269.693-.546 1.118-.883zM31.895 7.661c.045-.255-.006-.514.004-.771.008-.214-.022-.4-.267-.468-.026-.007-.05-.037-.065-.062-.105-.194-.257-.166-.433-.115-.441.128-.889.235-1.33.363-.394.115-.799.204-1.18.373.063.09.153.112.241.132 1.417.33 2.69.56 3.03.548zm-7.064 34.582c.137-.347.59-2.498.63-2.987-.436-.11-1.395-.216-1.673-.186.06.372.86 2.806 1.043 3.173zm36.141 4.402v-.138a.947.947 0 0 0-.006-.092c-.008-.091-.086-.127-.164-.069-.619.458-1.193.97-1.776 1.47-.375.32-.375.329-.205.777.01.03.02.058.032.087.115.27.265.36.545.267.54-.18.992-.488 1.258-1.012.205-.404.284-.841.316-1.29zm-34.925 2.58c-.371-.029-.752-.06-1.133-.088-.094-.007-.142.056-.16.134-.085.343-.167.687-.243 1.032-.023.1.011.171.127.203.176.048.31.157.31.354-.001.4-.01.8-.029 1.199-.007.159-.109.25-.273.255-.153.006-.307-.017-.46-.02-.063 0-.12.027-.144.095-.024.072-.057.144-.068.22-.061.41-.029.39.334.39.123 0 .246-.005.37 0 .121.005.207-.038.248-.157.02-.058.043-.115.063-.173l1.03-3.108c.034-.102.075-.203.028-.336zm17.41-16.143c.031-.136.068-.269.09-.404.154-.927.304-1.854.454-2.781.067-.41.13-.821.199-1.231.028-.166.002-.303-.15-.4-.079-.05-.144-.117-.22-.17-.07-.052-.142-.015-.166.078a.734.734 0 0 0-.01.045c-.307 1.54-.615 3.08-.92 4.62-.017.085-.05.18.062.288.195-.028.423.024.662-.045zm.788-5.064c.094-.116.096-.243.116-.36.168-1.016.329-2.034.494-3.05.215-1.321.425-2.643.656-3.96a.698.698 0 0 0-.115-.517c-.007-.011-.028-.024-.039-.02-.026.006-.065.016-.07.034a2.22 2.22 0 0 0-.072.265c-.424 2.11-.847 4.221-1.269 6.332-.052.257-.095.515-.144.771-.015.08-.02.159.043.215.124.109.234.24.4.29zm5.386-22.141c-.25.061-.449.174-.643.294-.049.03-.115.092-.111.133.022.265-.06.56.2.765.143.114.218.276.176.45-.06.25.055.399.222.554.64.597 1.302 1.168 2.016 1.675.048.034.09.086.183.024-.678-1.295-1.359-2.59-2.043-3.895zM25.578 44.334c.015-.05.036-.105.048-.16.318-1.379.638-2.757.952-4.136.05-.22.156-.432.1-.668-.214-.113-.454-.048-.678-.095a.433.433 0 0 0-.092-.006c-.071 0-.11.048-.134.106a.707.707 0 0 0-.043.132 2503.95 2503.95 0 0 0-.664 3.207.855.855 0 0 0 .02.456c.119.349.233.7.35 1.05.02.06.048.112.141.114zm33.486 7.917c-.03.004-.137.015-.243.03-.546.08-1.094.153-1.638.246-.92.158-1.84.325-2.76.498-.353.066-.349.078-.265.446.02.09.029.181.045.272.027.15.074.19.211.164.708-.13 1.415-.273 2.125-.394.71-.12 1.423-.223 2.136-.329.195-.029.443.019.561-.139.134-.178.138-.431.142-.663 0-.015-.004-.03-.006-.046-.01-.05-.047-.077-.093-.083-.045-.007-.092-.002-.215-.002zm-37.847-6.04c.468.04.91.079 1.353.112.149.012.19-.028.194-.184.005-.215.001-.43 0-.646l-.039-5.815c0-.077.008-.156-.005-.23-.014-.076.044-.177-.06-.237-.132.277-1.315 6.22-1.443 7zm5.731-6.372c-.042.122-.079.205-.099.292-.362 1.574-.72 3.149-1.086 4.722a.706.706 0 0 0 .014.403c.262.787.517 1.576.775 2.364.02.063.059.106.127.116.626-1.414.72-6.298.27-7.897zm18.763-18.726c-.073.434-.143.843-.21 1.252l-.71 4.374c-.072.44-.141.88-.215 1.32-.028.167.005.296.153.4.19.133.363.287.547.426.098.076.175.05.204-.064.059-.223.114-.447.166-.672.325-1.397.587-2.8.543-4.246-.026-.865-.102-1.72-.325-2.558-.02-.075-.039-.149-.153-.232zM13.989 45.591c-.04.003-.087 0-.13.012-.046.012-.08.048-.07.1.087.437.174.874.263 1.31.022.109.104.14.202.155.335.049.668.104 1.003.15.564.076 1.127.159 1.692.216.474.048.946.1 1.416.181.33.058.582.178.659.54.02.098.178.145.262.103.062-.032.089-.086.107-.143.1-.324.199-.647.292-.972.048-.168.002-.24-.16-.255-.736-.066-1.47-.138-2.207-.186-.229-.014-.422-.068-.584-.223-.179-.17-.364-.334-.525-.519a.733.733 0 0 0-.475-.254c-.243-.034-.486-.07-.73-.1-.336-.04-.672-.077-1.015-.115zm30.147-12.8c.142-.35.266-.713.432-1.056a7.67 7.67 0 0 0 .437-1.164c.107-.354.201-.71.298-1.067.024-.09.043-.192-.04-.258-.235-.192-.461-.4-.749-.58-.128.386-.145.754-.214 1.112-.068.362-.122.728-.18 1.093-.063.38-.136.757-.182 1.139-.044.358-.16.708-.135 1.092.113.006.204.015.295.015.864.004 1.72.11 2.576.213.96.115 1.91.315 2.859.51.183.038.365.175.569.068.06-.198.006-.396.004-.594 0-.03-.004-.061-.008-.092-.047-.398-.296-.623-.698-.633a45.593 45.593 0 0 0-3.186.044c-.54.024-1.073.08-1.604.174-.145.026-.3.093-.474-.015zM26.872 34.3c.124-.102.175-.25.244-.383a32.62 32.62 0 0 0 1.671-3.899c.623-1.728.676-3.49.427-5.282-.032-.226-.081-.455-.234-.671-.038.102-.082.183-.1.27-.098.451-.179.906-.29 1.354-.044.18.088.337.04.492-.05.17-.2.293-.24.487-.508 2.487-1.026 4.971-1.541 7.457-.012.055-.034.114.023.175zm-4.745-13.128L18 23.66c-.032.02-.045.042-.026.098.384.043.78.073 1.17.134 1.018.16 2.031.346 3.033.591.116.029.235.068.354.006.06-.118.036-.243.036-.365-.001-.662-.024-1.325-.004-1.987.013-.394-.06-.722-.435-.965zm5.628 4.554c-.096-.124-.13-.173-.169-.218-.447-.51-.899-1.015-1.34-1.529-.714-.83-1.417-1.668-2.178-2.454-.083-.086-.15-.197-.278-.225-.233.144-.31.346-.302.62.022.831.019 1.664.026 2.495 0 .077.004.154.007.231.004.089.055.14.136.163.088.026.176.054.266.074.494.113.989.226 1.484.335.75.164 1.499.325 2.348.508zm5.165 11.068c.012-.717-.02-1.392-.065-2.067 0-.015-.01-.03-.01-.044-.005-.057-.05-.082-.09-.092-.06-.015-.123-.011-.184-.012a24.23 24.23 0 0 0-4.001.297c-.529.081-.528.087-.652.639-.03.135-.062.27-.087.406-.017.09.024.143.119.155.457.06.913.128 1.372.18 1.19.135 2.374.314 3.598.538zm24.417 6.062c.538.486 1.016.963 1.548 1.38.157.122.173.121.321.019.088-.061.174-.126.257-.195l2.225-1.862c.2-.167.408-.326.607-.494.166-.141.164-.193-.01-.31-.434-.289-.875-.57-1.305-.864-.15-.103-.263-.093-.408.011-1.022.734-2.05 1.46-3.076 2.19-.038.027-.072.057-.159.125zm-5.263 2.623c.322-.01.483-.16.556-.431.035-.133.105-.256.146-.388a.76.76 0 0 0 .046-.27c-.032-.463.01-.482-.458-.477h-.139a32.873 32.873 0 0 0-3.184.115c-.414.035-.828.074-1.24.127-.291.038-.31.073-.306.35.006.523.011 1.046.02 1.57.003.23.013.459.02.673.103.049.175.02.248 0 .37-.104.74-.207 1.112-.307.623-.167 1.248-.331 1.87-.498.075-.02.147-.049.219-.075.082-.03.12-.094.12-.177-.002-.077-.017-.153-.022-.23-.021-.307-.045-.615-.06-.922-.008-.168.041-.228.205-.243.152-.014.308-.017.46-.003.212.02.264.077.28.291.024.291.036.583.107.895zm1.077.695c-.157.048-.288.087-.418.128-.63.198-1.255.415-1.891.592-.932.258-1.873.489-2.81.73-.176.045-.19.058-.21.247-.007.061-.007.123-.01.185-.004.115-.044.217-.157.26-.158.058-.195.175-.197.325-.003.262-.014.523-.016.785 0 .087-.028.185.071.269.108-.017.23-.028.35-.055.778-.176 1.557-.355 2.335-.533 1.048-.24 2.096-.484 3.117-.825.123-.041.243-.094.376-.147-.085-.15-.152-.27-.222-.389-.078-.133-.104-.145-.258-.09-.826.298-1.687.466-2.536.677-.148.036-.3.07-.459.01.024-.12.12-.127.207-.148l2.774-.676a.25.25 0 0 0 .082-.04c.059-.042.062-.106.038-.164-.045-.11.003-.26-.12-.33-.042-.025-.121.001-.178.021-1.192.415-2.423.683-3.654.952-.13.028-.262.072-.396.01.032-.088.105-.114.18-.133.267-.07.535-.136.803-.204.997-.252 2-.485 2.974-.821.336-.116.337-.117.28-.455-.008-.045-.026-.087-.055-.181zM12.054 62.71c-.012.105.065.17.115.242.335.491.545 1.03.642 1.616.058.351.06.704.05 1.058-.004.092-.077.16-.145.142-.06-.017-.114-.053-.118-.124a5.39 5.39 0 0 1-.012-.369 4.038 4.038 0 0 0-.189-1.226 3.49 3.49 0 0 0-.468-.947c-.063-.092-.133-.164-.26-.158-.268.012-.514-.08-.76-.17-.049-.019-.106-.069-.16.032.076.103.14.23.24.321.212.194.324.444.437.696.476 1.062.5 2.175.366 3.304-.022.178-.087.351-.04.553.152-.043.285-.079.416-.117l1.811-.536c.118-.035.237-.066.354-.104.113-.036.173-.11.174-.238.002-.416-.01-.83-.058-1.244-.158-1.32-.908-2.181-2.089-2.71-.094-.042-.199-.091-.306-.02zm37.281-8.08c.038-.019.076-.05.118-.057a573.19 573.19 0 0 1 2.684-.458c.091-.016.184-.022.276-.023.079-.002.158.02.202.09.14.223.276.454.256.727a1.942 1.942 0 0 1-.339.994c-.246.348-.276.358-.68.21-.04-.015-.082-.023-.155-.042.03.325.119.607.283.863.047-.016.081-.019.102-.036a4.946 4.946 0 0 0 1.404-1.864c.148-.347.207-.71.163-1.085a3.12 3.12 0 0 0-1.211-2.154c-.495-.389-1.077-.595-1.682-.724-.44-.094-.537-.078-.374.427.037.117.066.237.137.336.075-.004.098-.065.132-.115.123-.185.153-.2.317-.102a2.2 2.2 0 0 1 1.046 1.404c.051.204.007.273-.208.33-.49.129-.981.258-1.475.375-.314.075-.631.137-.95.19-.187.032-.209.008-.271-.162-.048-.13-.089-.263-.145-.39-.043-.096-.179-.123-.28-.068-.107.058-.155.15-.136.268.02.121.055.24.077.36.015.085-.013.15-.106.175-.297.078-.594.157-.892.234-.2.051-.2.049-.302-.153-.087-.17-.13-.2-.279-.155a3.393 3.393 0 0 0-.885.388c-.157.1-.291.227-.376.397-.025.052.013.137.069.143.076.01.153.016.229.016.51-.005 1.012-.077 1.514-.162.303-.051.607-.1.912-.137.181-.022.288-.025.332.212a1.4 1.4 0 0 0 .128.344c.042.087.213.11.338.054.078-.035.103-.104.096-.189-.013-.153-.095-.295-.069-.461zm-25.931-5.46c-.052-.063-.115-.062-.176-.067-.368-.024-.737-.046-1.105-.073-.43-.031-.858-.07-1.287-.1-.158-.011-.183.012-.225.163a1.54 1.54 0 0 0-.033.134c-.11.56-.177.52.43.632.211.039.422.079.63.128.031.007.068.07.068.106 0 .035-.043.097-.072.1-.121.011-.25.03-.366.001-.524-.13-1.062-.164-1.593-.24-.537-.077-.545-.074-.524.472.025.676.07 1.352.096 2.029.012.342.016.355.353.394a43.35 43.35 0 0 0 2.714.202c.282.015.31-.014.379-.282.015-.059.032-.118.045-.178.184-.888.375-1.775.548-2.665.05-.254.153-.503.118-.756zm6.68 3.827c.027-.003.12-.007.212-.017.534-.06 1.07-.12 1.604-.178.596-.066 1.194-.115 1.788-.199a46.94 46.94 0 0 0 2.184-.353c.86-.162 1.714-.358 2.573-.526.178-.035.271-.103.3-.285.044-.273.107-.543.16-.814.034-.18-.017-.238-.182-.207-.996.192-1.99.396-2.987.574-.862.154-1.728.294-2.595.414-.868.121-1.74.211-2.61.315l-.55.065c-.082.01-.157.04-.17.127-.047.319-.088.639-.126.959-.009.068.035.117.104.123.076.007.154.002.295.002zm40.456.563c-.383-.254-.64-.604-.715-1.073-.013-.086-.1-.116-.177-.121-.475-.033-.896-.209-1.288-.467a.59.59 0 0 0-.347-.096c-.545.006-1.074.074-1.56.346-.215.12-.44.224-.655.342a4.165 4.165 0 0 0-.792.557 1.934 1.934 0 0 0-.477.618c-.239.513-.13.97.316 1.31.049.037.102.069.152.105.216.155.436.177.696.086.654-.225 1.316-.424 1.975-.637.07-.023.136-.06.203-.09-.06-.135-.196-.157-.29-.232-.195-.156-.363-.33-.466-.564a.751.751 0 0 1 .056-.75 1.28 1.28 0 0 1 .506-.429c-.056.192-.107.335-.139.483-.068.313.015.59.268.786.408.316.865.468 1.382.317.384-.111.766-.23 1.147-.352.066-.02.146-.033.205-.139zm-2.708-18.118c-.135-.003-.217.101-.314.17a8551.51 8551.51 0 0 0-6.139 4.359 3.26 3.26 0 0 0-.22.167c-.068.057-.064.134.019.189.46.307.925.609 1.385.918.13.088.226.043.33-.042.655-.536 1.317-1.064 1.966-1.608.65-.543 1.29-1.097 1.98-1.591.362-.26.71-.54 1.068-.807.109-.081.165-.172.148-.312-.049-.412-.09-.826-.139-1.239-.008-.072-.006-.154-.084-.204zm-49.958 12.58c-.324-.042-.598-.086-.872-.11-.874-.072-1.74-.207-2.604-.349-.23-.038-.426-.016-.606.129a5.09 5.09 0 0 0-.315.27c-.086.082-.058.18.058.199.44.073.88.14 1.32.213.514.086 1.03.175 1.544.264.06.01.123.02.176.047a.16.16 0 0 1 .086.152c-.003.088-.05.152-.134.159a1.316 1.316 0 0 1-.32-.01c-.926-.149-1.855-.282-2.774-.463-.452-.088-.427-.041-.539.38-.027.102-.03.212-.033.32-.028.819.124 1.624.187 2.437 0 .015.004.03.008.045.03.103.202.197.299.155.09-.038.066-.124.063-.196-.004-.108-.016-.215-.021-.323a7.888 7.888 0 0 1 0-1.107 1.42 1.42 0 0 1 .126-.49c.147-.31.43-.37.733-.38.27-.008.36.192.451.394.173.385.246.791.266 1.21.014.307.034.612.077.918.058.41.053.33.414.432.043.012.091.001.137.001.09-.11.044-.236.039-.355-.018-.43-.049-.86-.056-1.291-.003-.183.02-.371.065-.548a.598.598 0 0 1 .525-.452c.228-.02.379.099.504.267.225.302.351.646.432 1.01.103.468.122.946.183 1.418.032.244.067.28.309.327.03.006.06.01.091.014.123.01.245.023.368.029.12.006.165-.045.143-.171-.1-.576-.215-1.15-.301-1.727a24.74 24.74 0 0 1-.165-1.466 3.402 3.402 0 0 1 .006-.646c.023-.227.081-.45.13-.707zm36.52-7.647c.04-.058.062-.081.073-.109.285-.731.567-1.464.855-2.193a.495.495 0 0 0 .005-.356 8.874 8.874 0 0 1-.25-.936.747.747 0 0 0-.335-.51c-1.097-.77-2.184-1.554-3.275-2.333-.05-.036-.098-.074-.15-.108-.14-.092-.197-.077-.2.085-.001.16-.048.233-.211.213-.114-.014-.166.053-.195.152-.12.397-.242.795-.364 1.192-.04.132-.091.262-.124.396-.042.175-.068.274.186.325.362.074.714.19 1.051.343.406.185.814.37 1.245.485.264.071.392.21.4.48.003.106.04.211.066.316l.463 1.977c.025.107.057.206.166.263.19.098.377.201.594.318zm-14.846 8.9c.376-.083.762-.175 1.15-.252.148-.029.207-.116.234-.245.015-.076.025-.152.037-.228.072-.456.142-.912.217-1.368.263-1.609.529-3.218.792-4.828.272-1.67.546-3.34.812-5.012.093-.588.092-.463-.348-.7a1.896 1.896 0 0 0-.253-.112c-.104-.038-.179.002-.205.11-.036.15-.066.301-.096.452-.382 1.916-.761 3.833-1.144 5.748-.41 2.052-.823 4.102-1.233 6.154-.018.087-.053.18.037.282zm17.58-6.643c.083-.053.163-.098.237-.15l2.86-2.032c.062-.044.126-.088.184-.138.059-.051.044-.114-.01-.155-.097-.074-.202-.14-.303-.21-.854-.577-1.704-1.16-2.563-1.73-.265-.176-.493-.485-.821-.47-.329.013-.651.166-.976.259l-.043.014c-.065.021-.097.072-.12.131-.277.733-.555 1.466-.83 2.2-.085.225-.085.23.113.377.731.54 1.416 1.136 2.085 1.751.055.05.117.096.186.153zm-15.841 6.001c.096-.037.127-.127.172-.205.484-.857.999-1.696 1.524-2.53.517-.82.95-1.688 1.41-2.54.059-.108.117-.218.119-.345.006-.615.112-1.226.071-1.843-.044-.676-.07-1.353-.118-2.028-.022-.306-.078-.61-.12-.914-.14-.995-.45-1.944-.775-2.89-.014-.04-.024-.082-.091-.09-.023.051-.062.104-.071.162-.72 4.383-1.437 8.768-2.152 13.152-.004.021.02.047.031.071zm-7.2-16.142c.098.024.172-.03.247-.076.302-.187.593-.385.798-.687.096-.143.216-.174.398-.121.426.124.864.211 1.288.35.29.096.594.156.893.223a.436.436 0 0 0 .485-.182c.177-.251.372-.487.503-.771.477-1.037.574-2.13.51-3.25-.026-.457-.269-.775-.691-.952-.113-.047-.233-.078-.35-.117-.279-.092-.57-.122-.86-.157-.284-.034-.44-.206-.524-.452a1.744 1.744 0 0 1-.075-.454c-.047-.832-.027-1.66.137-2.482.015-.074.026-.151.026-.227 0-.044-.023-.094-.076-.1a.269.269 0 0 0-.131.01.263.263 0 0 0-.103.089c-.242.339-.592.535-.958.699-.393.175-.798.322-1.195.487-.256.106-.509.219-.758.337a1.148 1.148 0 0 0-.37.272.82.82 0 0 0-.095.944c.042.073.096.119.183.108.094-.012.13-.08.121-.163-.014-.146-.006-.277.131-.367.064-.042.124-.09.188-.133.13-.086.187-.078.26.055.234.434.433.884.523 1.373.147.792.135 1.593.12 2.393-.007.369-.037.738-.033 1.107a3.55 3.55 0 0 1-.154 1.045 7.415 7.415 0 0 1-.348.903c-.042.094-.13.175-.09.296zm7.786 3.098c.045-.165.083-.281.107-.4l1.185-5.928c.084-.422.154-.848.25-1.267.037-.164-.009-.266-.133-.355-.05-.036-.096-.076-.143-.116-1.074-.9-2.147-1.8-3.22-2.702-.236-.198-.468-.4-.704-.6-.044-.037-.096-.093-.158-.045-.028.022-.04.078-.043.12-.032.398-.054.798-.094 1.196-.015.153.046.228.178.275.265.095.487.266.7.44.18.146.317.32.347.575.18 1.562.121 3.103-.333 4.619a18.184 18.184 0 0 1-.754 2.032c-.163.377-.193.318.168.587.247.183.508.35.744.546.553.462 1.224.695 1.903 1.023zm-7.602 12.794c.048-.166.007-.268-.013-.373-.112-.583-.11-.535.406-.73.272-.103.563-.156.843-.236.211-.06.249-.1.26-.321.015-.338.021-.677.027-1.016a34.76 34.76 0 0 0-.14-3.83c-.092-.98-.207-1.96-.33-2.937a30.758 30.758 0 0 0-.46-2.731c-.026-.12-.065-.238-.09-.358-.036-.168.03-.246.185-.22.97.163 1.941.323 2.894.575a24.84 24.84 0 0 1 2.713.894c.223.087.237.111.226.339a2.657 2.657 0 0 1-.042.413c-.295 1.447-.572 2.898-.913 4.336-.313 1.317-.674 2.624-.85 3.97-.018.131-.096.184-.208.21-.36.082-.72.156-1.079.246-.266.066-.543.097-.779.22-.03.096-.007.168.017.242.128.395.252.792.385 1.185.133.394.27.786.413 1.176.062.169.098.183.277.156.152-.024.302-.058.452-.09.21-.046.452-.044.62-.154.202-.132.153-.42.197-.638.805-3.998 1.6-7.998 2.396-11.997.077-.385.078-.387-.283-.559-1.386-.66-2.854-1.043-4.361-1.295a27.558 27.558 0 0 0-1.786-.22c-.4-.04-.8-.052-1.2-.057-.189-.003-.214.024-.215.213-.007.801.027 1.602.13 2.397a31.52 31.52 0 0 1 .248 3.684 4.505 4.505 0 0 1-.332 1.758c-.301.743-.674 1.451-1.02 2.173a5.187 5.187 0 0 1-1.022 1.416c-.306.306-.64.578-.997.822-.61.418-1.245.793-1.9 1.138-.083.043-.243.05-.203.191.027.094.161.065.249.071.2.015.4.01.6.027.36.032.294.026.344-.205.019-.068.095-.078.156-.068.074.011.088.077.087.14-.006.225-.053.183.192.206.384.028.76.116 1.148.115.355-.001.474.115.574.476.085.311.165.625.261.933.154.495.088.483.637.402.44-.064.416-.016.403-.487-.004-.154-.003-.308-.008-.462-.011-.308-.027-.615-.037-.923-.004-.148.05-.225.22-.219.23.008.459.002.708.002zm-14.748 10.36c-.027.075.004.112.037.144.748.723 1.563 1.344 2.568 1.673.062.02.128.032.169-.023.277-.373.696-.55 1.08-.774.239-.14.504-.231.777-.281a8.587 8.587 0 0 1 1.84-.122c.2.007.395.04.59.093.688.184 1.353.411 1.949.815.203.137.439.228.637.372.27.195.559.219.875.188.628-.059 1.258-.097 1.887-.151.537-.046 1.073-.102 1.609-.152.458-.042.917-.082 1.39-.123-.07.131-.177.145-.28.173-.85.222-1.715.362-2.587.458-.49.055-.98.102-1.47.158-.06.007-.15-.017-.174.08.03.022.052.044.078.055.07.03.142.06.215.084.67.225 1.347.4 2.054.496.982.134 1.962.168 2.949.15.106-.001.213-.024.32-.04.668-.107 1.335-.217 2.004-.322.867-.134 1.736-.25 2.6-.4 1.833-.318 3.663-.655 5.496-.978a89.61 89.61 0 0 0 6.135-1.305c1.76-.44 3.517-.889 5.262-1.388.118-.034.235-.07.352-.11.064-.02.088-.079.113-.136.04-.09.007-.166-.08-.16a3.832 3.832 0 0 0-.275.027c-.549.076-1.096.157-1.645.23-.213.03-.428.047-.643.068-.06.005-.129 0-.145-.074-.017-.076.038-.112.102-.123.38-.064.759-.123 1.138-.187.516-.086 1.03-.182 1.547-.26.16-.025.236-.103.289-.249.275-.768.532-1.541.723-2.336.05-.205.13-.408.112-.621-.055-.052-.118-.05-.179-.042-.244.032-.489.058-.732.1-1.212.207-2.423.424-3.636.625-.262.044-.408.166-.476.418-.247.924-.805 1.651-1.47 2.31a2.6 2.6 0 0 1-.595.435c-.173.094-.283.074-.404-.075a.705.705 0 0 1-.122-.194c-.151-.42-.315-.836-.436-1.265-.115-.406.083-.583.5-.485.15.036.296.087.442.133.1.03.177.002.246-.076a.775.775 0 0 0 .217-.543c-.003-.131-.077-.2-.204-.17-.765.173-1.529.35-2.294.52a.572.572 0 0 0-.284.134.775.775 0 0 1-.77.178.728.728 0 0 0-.365.005c-1.664.377-3.325.763-4.993 1.125-1.427.31-2.859.6-4.292.88-1.116.22-2.236.42-3.358.611-.712.122-1.43.216-2.145.316-.61.085-1.22.165-1.831.236a29.64 29.64 0 0 1-1.333.127c-.737.052-1.475.095-2.213.136-1.355.078-2.71.064-4.065.014-.57-.021-1.14-.046-1.707-.093-.844-.07-1.686-.159-2.528-.241-.194-.02-.388-.047-.571-.069zM7.267 69.144c.104.009.136.02.161.011.521-.187 1.04-.38 1.562-.566a.584.584 0 0 0 .365-.32c.434-.94.651-1.919.58-2.96a3.896 3.896 0 0 0-.592-1.825c-.172-.273-.357-.54-.553-.796-.19-.25-.289-.53-.383-.907.371.247.639.496.929.714.301.226.592.47.933.66.04-.14-.052-.194-.093-.268-.088-.161-.204-.311-.268-.481-.1-.264.066-.455.35-.437.175.011.325.091.479.16.196.089.392.178.59.262.09.037.187.047.227-.072.061-.185.198-.22.366-.193.152.024.31.031.452.084 1.317.492 2.192 1.388 2.52 2.78.103.438.125.885.113 1.331-.01.347 0 .42.423.307 1.768-.469 3.541-.921 5.313-1.378 1.444-.371 2.885-.757 4.34-1.083.104-.024.202-.067.33-.11-.362-.652-.96-.881-1.61-1.044-.026.11.044.159.085.218.113.165.236.324.345.49.104.158.103.293.009.316-.137.032-.186-.082-.242-.168a5.035 5.035 0 0 0-.688-.867c-.099-.097-.191-.202-.338-.231-.337-.068-.63-.24-.931-.393a1.972 1.972 0 0 0-1.025-.224c-.1.007-.212.073-.305-.02-.051-.052.04-.156.22-.257.163-.091.34-.157.523-.171.4-.033.803-.054 1.198.023.77.15 1.523.37 2.256.655.436.17.832.396 1.154.743.157.17.343.312.493.487.12.139.246.163.408.116.074-.022.15-.034.225-.049l2.982-.613c.09-.018.182-.036.27-.063.094-.027.21.01.28-.072-.015-.095-.074-.116-.127-.145a5.443 5.443 0 0 1-.901-.643 6.433 6.433 0 0 0-1.062-.734c-.268-.152-.533-.31-.8-.461-.777-.443-1.598-.717-2.506-.656-.214.015-.427.06-.641.071-.63.034-1.158.326-1.621.71-.327.271-.286.286-.779.113-.058-.02-.112-.05-.167-.078-.55-.28-1.121-.507-1.702-.712a8.164 8.164 0 0 1-2.16-1.13c-.195-.144-.41-.203-.634-.254a.677.677 0 0 0-.606.146c-.13.109-.255.223-.377.34-.249.24-.246.237-.558.14-.2-.062-.345-.196-.493-.331-.228-.207-.448-.426-.696-.607-.636-.464-1.333-.768-2.142-.717-.199.012-.397.05-.593.087-.472.09-.927.214-1.291.56-.16.15-.257.141-.455.021a3.957 3.957 0 0 1-.232-.152c-.428-.303-.847-.617-1.283-.907-.622-.415-1.292-.55-2.018-.292-.446.159-.764.41-.876.913-.098.444-.235.488-.664.337-.058-.02-.117-.04-.173-.066-.24-.112-.499-.154-.76-.183a1.842 1.842 0 0 0-1.385.39 6.624 6.624 0 0 0-.557.484c-.18.179-.368.317-.636.333-.195.01-.301.152-.33.333-.04.245-.051.491.076.722.075.135.148.27.213.41.076.164.037.295-.115.397-.063.043-.136.071-.203.109a.83.83 0 0 0-.314.332c-.1.18-.068.338.11.432.19.1.392.175.592.256.099.04.208.06.302.108.17.087.181.213.068.331a1.968 1.968 0 0 0-.448.694c-.047.13-.085.262-.02.403.16.35.116.688-.084.998.063.102.148.14.241.144.264.015.52.058.76.177.08.04.154.005.202-.06.183-.249.498-.211.739-.335.049-.026.154.018.212.06.085.061.153.148.226.227.126.134.246.275.376.406.09.093.213.15.336.119.253-.062.5-.15.748-.227.096-.19.054-.39.053-.59-.001-.292.082-.39.372-.414.154-.013.307-.026.452-.081.355-.134.492-.394.41-.765a.88.88 0 0 0-.213-.403 2.362 2.362 0 0 0-.456-.388c-.036-.024-.085-.046-.068-.098.022-.069.087-.083.15-.085.195-.006.355.093.508.196a4.21 4.21 0 0 1 1.41 1.562 2.99 2.99 0 0 1 .31 1.881c-.072.45-.228.865-.463 1.247-.291.477-.436 1.015-.71 1.536zM35.652 20.75c.018-.04.04-.024.02-.006-.044.04.028.015-.027-.013.453.394.907.787 1.358 1.183.14.123.287.22.463.293.44.181.87.389 1.306.583.124.056.2.134.19.282-.007.076.019.154.013.23-.022.253.085.426.28.589 1.313 1.095 2.617 2.202 3.924 3.305.07.06.141.12.22.168.053.033.126.036.145-.044.04-.165.071-.331.105-.497.328-1.646.658-3.29.983-4.936.134-.68.253-1.362.388-2.042a.71.71 0 0 0-.162-.642 1.282 1.282 0 0 1-.112-.147c-.2-.312-.466-.52-.849-.557a.742.742 0 0 1-.384-.147.217.217 0 0 1-.076-.248c.032-.096.098-.163.203-.156.106.007.212.025.316.051 1.565.393 3.125.806 4.675 1.258.086.025.168.083.274.041.07-.158.02-.328.013-.494-.008-.19-.05-.237-.235-.285-.134-.033-.28-.025-.387-.132-.018-.018-.024-.053-.029-.082-.006-.036.016-.056.054-.06.168-.021.336-.047.504-.063a8.248 8.248 0 0 1 1.66.01c.2.021.257.147.163.32a.468.468 0 0 1-.363.255c-.131.02-.316-.069-.38.077-.05.112.005.27.013.409.003.046.01.092.007.138-.015.203.082.294.276.353.854.256 1.702.53 2.553.796.704.22 1.41.436 2.113.662.129.042.273.06.38.16.072.067.099.15.07.25-.03.105-.112.158-.206.15a1.902 1.902 0 0 1-.403-.083c-.97-.3-1.938-.604-2.906-.908-.144-.046-.284-.11-.454-.095-.028.778-.048 1.548 0 2.317.042.677.037 1.355.029 2.032a8.939 8.939 0 0 1-.111 1.335c-.11.668-.221 1.336-.323 2.006-.128.836-.243 1.676-.456 2.497a29.96 29.96 0 0 0-.167.672c-.047.195-.01.237.206.247.092.004.184.003.277.004.741.007 1.473.11 2.201.235.165.029.368.041.474.143.141.135.104.373.136.568.003.014-.001.03-.003.045-.01.073-.06.106-.126.106-.062 0-.122-.018-.183-.021-.63-.033-1.254-.152-1.889-.118-.371.02-.46.128-.359.473.04.13.154.188.252.259 1.1.79 2.201 1.58 3.305 2.368.083.06.158.15.289.136.003-.044.017-.09.008-.132-.183-.842-.29-1.7-.537-2.528a2.036 2.036 0 0 1-.077-.361 15.472 15.472 0 0 0-.283-1.685c-.167-.752-.231-1.521-.368-2.278-.107-.59-.22-1.18-.323-1.772-.067-.394-.115-.792-.181-1.187-.196-1.184-.398-2.368-.594-3.552-.02-.12-.018-.245-.019-.367 0-.02.03-.052.053-.06.025-.009.064-.007.084.009.05.036.094.079.135.125.862.966 1.826 1.833 2.719 2.77.892.935 1.848 1.808 2.758 2.728 1.885 1.906 3.794 3.787 5.695 5.678.623.62 1.17 1.308 1.748 1.968.105.119.068.214-.103.262-.295.085-.592.163-.889.242-.638.17-1.272.359-1.917.504-1.544.35-3.094.677-4.64 1.016-.285.063-.568.138-.85.212-.056.015-.06.079-.03.108.078.074.163.14.251.2.968.658 1.935 1.318 2.909 1.967.37.247.263.257.632-.005 2.086-1.478 4.168-2.961 6.252-4.443.063-.045.129-.086.186-.137.15-.133.201-.504.084-.666-.297-.412-.592-.827-.903-1.229-3.104-4.011-6.022-8.152-8.672-12.478a213 213 0 0 1-2.782-4.689c-.073-.127-.11-.29-.28-.36.094.652.094 1.298.06 1.944-.02.355-.098.701-.175 1.047-.025.113-.102.152-.205.121-.044-.013-.086-.034-.128-.052-.514-.21-1.046-.36-1.582-.5-1.31-.34-2.634-.617-3.983-.764-.674-.074-1.346-.152-2.025-.152-.679 0-1.354.033-2.021.167-.038.008-.102-.01-.121-.039-.02-.03-.015-.098.007-.13.394-.555.5-1.218.693-1.847.06-.196.035-.36-.183-.46-.124-.056-.229-.154-.34-.236-2.25-1.648-4.497-3.297-6.746-4.946-.259-.19-.502-.414-.856-.403-1.305-.416-2.643-.703-3.974-1.022-.475-.115-.442.007-.444.349-.001.234.03.273.24.322.24.056.482.103.72.16 1.078.254 2.15.53 3.233.757.416.087.7.29.902.64.27.467.494.957.663 1.47.024.073.044.147.055.223.014.09-.033.15-.122.161a3.024 3.024 0 0 1-.322.015c-.632.004-1.264.006-1.896.011-.123 0-.246.007-.368.02-.106.012-.166.078-.163.186.008.23.022.462.031.692.02.479.02.961-.078 1.428-.249 1.176-.787 2.229-1.446 3.224a.3.3 0 0 1-.18.134c-.07.018-.09.068-.094.137-.026.344-.027.344-.22.586.16.202.378.35.554.539.186.199.41.305.673.372 1.49.377 2.975.774 4.477 1.106.088.02.177.053.257.096.09.048.115.139.1.237-.017.104-.088.163-.181.187-.109.029-.212-.011-.317-.037-1.12-.274-2.241-.544-3.361-.819-.151-.037-.297-.085-.448-.014zm23.95 35.344c.01-.03.016-.061.031-.087a79.938 79.938 0 0 1 2.381-3.74 10.867 10.867 0 0 0 1.39-2.855c.217-.694.357-1.402.323-2.136-.026-.588-.226-1.082-.743-1.407a.587.587 0 0 1-.281-.5c-.014-.215-.016-.432-.049-.644-.037-.245-.036-.49-.048-.737-.01-.203.063-.34.221-.47 1.555-1.286 3.095-2.59 4.656-3.87 1.156-.947 2.335-1.865 3.504-2.796.227-.18.461-.354.663-.581-.053-.1-.095-.2-.153-.289-.078-.118-.163-.135-.273-.066-.026.016-.049.037-.073.056-1.075.8-2.151 1.598-3.225 2.399-.396.294-.797.582-1.179.893a924.484 924.484 0 0 0-4.322 3.547c-.938.774-1.847 1.583-2.804 2.337-.362.286-.717.581-1.085.861-.969.736-1.93 1.483-2.9 2.216-.289.216-.624.367-.991.301a1.204 1.204 0 0 0-.756.095c-.11.051-.233.079-.35.118-1.285.431-2.607.716-3.929 1.01-.465.104-.93.21-1.393.318-.148.034-.253.106-.245.28.01.214-.132.282-.312.333a65.744 65.744 0 0 1-4.431 1.101c-.766.163-1.54.296-2.308.459-.63.134-1.257.294-1.886.437-.304.068-.347.042-.503-.246-.1-.184-.106-.188-.279-.153-.95.19-1.898.385-2.85.569-.74.144-1.488.24-2.238.321-.673.074-1.347.138-2.021.205-.148.014-.262.054-.295.23-.039.211-.186.298-.4.305-.262.008-.522.046-.784.052-1.386.036-2.773.06-4.16.026-.539-.013-1.078-.035-1.617-.048a68.273 68.273 0 0 0-1.432-.023c-.167-.001-.307-.03-.37-.205-.043-.115-.12-.162-.244-.171-.675-.054-1.35-.115-2.025-.171-.107-.009-.216-.009-.323-.01-.081-.002-.153.014-.18.104-.104.344-.367.386-.664.339-1.048-.168-2.103-.289-3.141-.516-.102-.023-.213-.053-.318.041.011.067.033.142.034.217.004.205.098.287.307.315.746.102 1.49.228 2.235.34.162.025.33.019.482.141-.107.071-.198.057-.287.055-.634-.014-1.253-.146-1.875-.25-.211-.036-.422-.084-.633-.119-.074-.013-.11.036-.113.108-.001.03 0 .061.004.092.045.397.062.425.464.482.594.085 1.19.155 1.784.235.122.016.242.045.36.078.036.01.09.05.09.075-.002.078-.074.088-.135.092a.974.974 0 0 1-.184-.004l-.869-.122c-.396-.053-.793-.107-1.19-.156-.126-.016-.17.03-.149.157.093.54.059.549.615.61.06.006.124 0 .185.009.228.03.458.058.684.101a.498.498 0 0 1 .387.292c.07.154.166.295.25.443.055.099.127.164.249.178.748.09 1.496.192 2.245.275.49.054.981.09 1.473.123.86.056 1.72.132 2.583.15 1.833.04 3.665.057 5.498-.072a66.935 66.935 0 0 0 2.53-.229c.81-.087 1.617-.21 2.423-.333 1.033-.16 2.068-.318 3.096-.507 1.345-.249 2.687-.519 4.027-.795 1.084-.223 2.163-.472 3.246-.702a.811.811 0 0 0 .46-.262c.455-.492 1.058-.727 1.686-.902.147-.04.305.003.348.15.063.213.18.21.347.159.087-.028.182-.034.268-.063.078-.025.127-.08.107-.174-.015-.075-.032-.152-.032-.228 0-.18.082-.291.248-.346a.655.655 0 0 1 .18-.036c.15-.005.293-.123.448-.037.142.078.123.24.18.362.05.109.112.18.244.153.075-.015.154-.015.228-.032.48-.112.956-.237 1.437-.337.36-.075.291-.256.148-.453a1.632 1.632 0 0 0-.186-.205c-.224-.22-.238-.216-.384.09-.02.041-.037.085-.063.123-.118.175-.351.179-.46.002a1.045 1.045 0 0 1-.105-.255 22.223 22.223 0 0 1-.193-.712c-.057-.224-.122-.447-.155-.675-.05-.335.07-.454.405-.444.42.012.824.112 1.22.234.96.293 1.747.829 2.297 1.684.025.039.053.076.08.113.06.084.138.112.24.09.347-.073.693-.148 1.04-.212 1.255-.232 2.512-.461 3.78-.608.21-.025.421-.056.649-.115.022-.45.051-.879.061-1.308.009-.396.03-.438-.382-.435-.106.001-.21-.037-.317-.052-.316-.046-.543-.237-.692-.494-.247-.429-.402-.898-.515-1.38-.025-.112 0-.212.102-.285.062-.045.118-.1.178-.148l3.156-2.491c.06-.047.126-.088.194-.12.085-.042.2.014.216.108.124.729.27 1.456.285 2.197.017.749-.254 1.405-.849 1.863-.347.268-.452.553-.437.974.046 1.268-.1 2.524-.375 3.76-.14.631-.326 1.252-.494 1.875-.034.121-.077.237.011.35l-.026-.011.016.022zm-12.823-.655c-.168.015-.337.026-.505.04-.353.026-.677-.031-.925-.313-.057-.065-.129-.078-.21-.063-.09.016-.182.028-.272.048-2.732.608-5.47 1.185-8.232 1.651-1.76.298-3.525.552-5.302.737a57.092 57.092 0 0 1-3.503.23c-1.742.074-3.482 0-5.222-.083-.092-.005-.184-.017-.276-.025-.583-.047-1.167-.09-1.75-.143-.46-.042-.918-.095-1.377-.145-.316-.034-.632-.07-.989-.11.091.228.229.374.343.535.168.239.368.398.687.39.197-.004.395.058.593.08.689.074 1.377.154 2.068.211.782.064 1.566.133 2.35.152 1.803.044 3.605.059 5.406-.071a59.67 59.67 0 0 0 2.53-.229 72.285 72.285 0 0 0 3.017-.425 109.87 109.87 0 0 0 3.502-.598c1.45-.278 2.894-.58 4.338-.89 1.398-.298 2.791-.618 4.187-.928.077-.017.321-.088.39-.1.026 0 .101.02.067-.056-.008-.016-.049-.023-.074-.023-.074 0-.626.11-.84.128zM9.75 63.388c.005.034-.001.04-.02.015l.031-.008c-.111.147.007.264.062.38.352.742.45 1.523.398 2.337-.042.668-.224 1.299-.454 1.92-.031.084-.096.16-.032.29.504-.148 1.008-.317 1.515-.474.077-.024.122-.089.14-.17l.083-.358c.143-.638.12-1.285.078-1.93a4.382 4.382 0 0 0-.216-1.035c-.075-.234-.155-.439-.472-.366-.066.015-.15-.025-.22-.054-.326-.135-.641-.292-.892-.547zm14.18-22.579c.006-.04.018-.08.018-.12 0-.02-.022-.04-.034-.06-.01.022-.031.046-.027.063.01.039.033.073.051.11.009.122.007.245.028.365.103.587.212 1.174.32 1.76.043.24.088.481.136.721.005.023.034.054.055.057.024.004.07-.014.076-.033.09-.29.216-.579.116-.89-.207-.64-.422-1.277-.635-1.915-.016-.049-.057-.063-.105-.058zm-2.103.303c-.199.663-.4 1.325-.598 1.988-.013.043-.028.091-.022.134.012.085.08.127.154.155.08.031.11-.03.125-.089.04-.163.079-.329.11-.494.112-.605.382-1.892.392-1.933.004-.018-.02-.043-.03-.064a3.548 3.548 0 0 0-.13.303zm22.476 3.12c-.191.166-.257.405-.351.627-.008.016.018.062.037.069.022.008.068-.003.08-.021a1.37 1.37 0 0 0 .24-.687l-.006.011zm10.38-2.833c-.015.028-.021.03-.017.003l.027.008c-.04.074-.024.146.02.21.056.078.064.2.192.213.009 0 .026-.019.03-.031.024-.107-.065-.159-.115-.229-.043-.06-.092-.117-.138-.174zM50.306 6.477l-.025-.005c.007-.006.018-.017.021-.016.054.03.016-.037-.008.02.032.082.072.163.056.256.102.058.13.167.18.261.272.518.542 1.036.816 1.553.252.476.51.95.762 1.426.081.153.161.301.36.323.014.001.027.013.041.02.236.115.277.19.167.43-.054.117-.047.2.013.298.048.079.087.163.132.244.672 1.211 1.34 2.426 2.02 3.633 2.949 5.24 6.139 10.325 9.724 15.156 1.083 1.46 2.168 2.919 3.322 4.324.225.274.553.427.758.722.062.091.207.128.316.184.246.126.496.247.74.376.077.04.15.048.217.004.306-.201.614-.4.876-.684-.098-.119-.184-.226-.273-.33a178.7 178.7 0 0 1-7.427-9.327c-2.413-3.255-4.691-6.605-6.945-9.972a480.83 480.83 0 0 1-5.382-8.24c-.083-.13-.17-.256-.257-.383-.046-.067-.103-.046-.16-.017-.001-.088.065-.188-.044-.256zm7.423 7.991c1.156.503 2.328.968 3.492 1.45 1.967.813 3.857 1.779 5.642 2.943 1.52.991 2.885 2.16 4.002 3.6.094.122.189.245.268.376.104.174.164.36.142.572-.02.184-.019.37-.019.554v10.542c0 .146.03.232.202.301.7.285 1.076.841 1.207 1.574a.485.485 0 0 1-.118.43c-.092.103-.187.21-.3.287-.69.468-1.31 1.025-1.96 1.543a520.108 520.108 0 0 0-4.072 3.271c-.825.67-1.633 1.362-2.452 2.04-.153.127-.245.25-.192.47.054.223.005.48.096.68.09.2.303.34.451.516.262.314.399.69.5 1.081.024.088.035.18.058.306.457-.223.874-.479 1.358-.593.473-.11.952-.035 1.433-.095.163-.39.383-.74.715-1.006.126-.1.132-.232.131-.373v-1.942c0-.108.003-.216 0-.324-.003-.146.03-.275.151-.369.108-.083.176-.216.319-.254.104.06.077.161.077.248.003.71.002 1.418.002 2.127 0 .446-.026.503.444.385.162-.04.336-.03.504-.044.077-.007.156-.003.229-.022.158-.04.244-.158.253-.34.006-.107.002-.215.002-.323 0-1.095.006-2.189-.004-3.283-.002-.231.043-.419.222-.574.116-.1.206-.231.322-.331.12-.104.168-.3.369-.306.103.155.048.329.05.492.005 1.187.002 2.374.003 3.56 0 .124-.001.247.006.37.008.115.055.15.184.147.107-.002.216-.02.323-.009.717.068 1.306.666 1.39 1.387.02.172-.088.41.101.502.148.072.301-.113.455-.174a5.741 5.741 0 0 1 1.295-.327c.55-.079 1.287.366 1.544.91a.435.435 0 0 1 .027.27c-.022.121-.04.244-.056.366-.024.19-.003.389.133.521.254.246.32.566.355.882.103.932.08.978-.535 1.605-.118.12-.247.234-.387.328-.169.114-.312.25-.437.407-.27.337-.63.475-1.05.491-.404.016-.8-.018-1.178-.177-.085-.036-.171-.075-.219-.16-.01-.02 0-.074.014-.08.041-.016.09-.018.135-.023.291-.03.583-.053.873-.089.46-.057.796-.305 1.028-.7.047-.078.085-.164.12-.249.126-.304.346-.516.658-.603.206-.058.275-.172.259-.368-.005-.046 0-.093-.003-.139-.01-.198-.04-.233-.236-.269-.075-.014-.154-.016-.226-.04-.262-.092-.454-.391-.256-.712.033-.052.073-.099.11-.148.158-.207.166-.424.043-.649-.135-.246-.327-.426-.62-.406-.61.043-1.186.19-1.641.638-.055.054-.112.108-.157.17-.151.214-.344.11-.467-.018-.101-.106-.125-.244-.134-.384a4.056 4.056 0 0 0-.09-.686 2.254 2.254 0 0 0-.312-.716c-.248-.38-.613-.502-1.04-.327a3.827 3.827 0 0 0-.612.322c-.201.13-.406.207-.649.194-.569-.03-1.045.17-1.472.548-.225.2-.349.424-.373.712-.012.137-.002.277-.003.415 0 .206-.024.235-.242.24-.23.004-.464.015-.693-.007-.79-.073-1.44.254-2.052.695-.098.07-.187.162-.257.26-.26.365-.487.747-.62 1.181-.34 1.113-.863 2.136-1.514 3.101a63.106 63.106 0 0 0-2.114 3.31c-.115.198-.244.387-.397.628.537-.067.985-.265 1.452-.39.49-.13.972-.289 1.458-.436.468-.142.936-.286 1.387-.425.035-.158-.077-.185-.138-.237-.515-.436-.676-1.07-.39-1.76.083-.197.189-.39.31-.565.85-1.238 2.029-1.995 3.48-2.343.059-.014.12-.02.182-.028.171-.02.171-.02.256.17.248.555.715.782 1.284.84a2.77 2.77 0 0 0 1.565-.303c.11-.055.215-.119.325-.173.02-.01.063 0 .08.016.019.017.02.053.025.082.002.014-.005.03-.01.045-.172.503-.451.905-.984 1.083-.192.064-.221.167-.131.352.129.265.356.42.609.543a.92.92 0 0 0 .71.044c1.53-.463 3.07-.9 4.603-1.353.85-.25 1.72-.342 2.6-.342.485 0 .902.411.946.9.063.698-.038 1.382-.194 2.061a9.35 9.35 0 0 1-.613 1.787c-.44.967-.868 1.939-1.161 2.965-.119.415-.227.83-.284 1.259-.117.89-.153 1.779 0 2.668.013.076.014.154.014.23.004.48.06.954.138 1.426a7.13 7.13 0 0 1-.026 2.482 2.608 2.608 0 0 1-.38.934c-.462.727-1.066 1.314-1.76 1.813-.502.36-1.017.698-1.552 1.004a312.38 312.38 0 0 1-2.652 1.504c-.064.037-.143.05-.216.065-.069.014-.118-.053-.089-.116.032-.07.064-.14.106-.205.177-.27.352-.543.54-.807.17-.241.39-.43.651-.576.471-.261.94-.527 1.404-.802.504-.298.99-.625 1.453-.983.121-.094.25-.18.313-.331.202-.483.45-.947.589-1.455.012-.044.025-.088.035-.133.024-.106-.022-.177-.113-.226a.56.56 0 0 0-.399-.054c-.74.146-1.484.264-2.222.42-1.7.359-3.398.735-5.072 1.206-1.318.37-2.626.777-3.95 1.124-2.471.647-4.913 1.392-7.358 2.128-2.27.683-4.572 1.239-6.893 1.722-1.536.32-3.068.66-4.606.971-1.236.25-2.478.478-3.72.7-1.544.275-3.092.537-4.639.8a611.11 611.11 0 0 1-3.551.592c-1.064.175-2.127.35-3.191.512-.776.118-1.555.215-2.334.318-.87.115-1.739.236-2.61.334-.78.087-1.564.148-2.347.217-.583.052-1.166.101-1.75.148-.628.05-1.259.09-1.888.148-.236.022-.416-.027-.554-.237-.1-.153-.237-.283-.352-.427a.182.182 0 0 1-.042-.121c.01-.077.085-.082.143-.085.369-.022.739-.033 1.107-.06.645-.05 1.289-.11 1.934-.163.445-.037.89-.069 1.335-.107.798-.067 1.597-.125 2.393-.212.857-.094 1.71-.215 2.565-.33.96-.13 1.921-.26 2.88-.403.838-.124 1.672-.262 2.507-.4.836-.136 1.67-.279 2.504-.418 1.002-.167 2.005-.329 3.006-.499.985-.168 1.97-.338 2.954-.519 1.21-.222 2.422-.44 3.627-.69 2.109-.436 4.214-.887 6.318-1.347 1.608-.351 3.194-.791 4.775-1.25 1.506-.437 3.001-.913 4.508-1.349 1.98-.572 3.971-1.102 5.948-1.686 2.496-.737 5.031-1.302 7.582-1.808a6.6 6.6 0 0 1 .684-.11c.546-.047.938-.35 1.287-.738.133-.148.114-.311.085-.479-.013-.081-.084-.128-.157-.156a1.224 1.224 0 0 0-.494-.097c-.877.022-1.755.037-2.618.225-.15.033-.302.054-.455.076a.333.333 0 0 1-.268-.071c.03-.099.127-.108.2-.135.682-.247 1.387-.407 2.093-.558.12-.026.24-.065.362-.071.448-.022.72-.314.98-.623a.9.9 0 0 0 .142-.237c.13-.31.013-.526-.318-.556a3.964 3.964 0 0 0-1.014.032c-.107.018-.214.05-.32.047-.546-.015-1.066.13-1.592.245-.18.038-.36.095-.545.035-.024-.008-.053-.034-.058-.055-.005-.025.007-.071.025-.08.11-.053.224-.1.338-.146.847-.333 1.73-.538 2.62-.72.487-.1.903-.54.964-1.04.034-.288-.16-.482-.444-.423-.361.073-.723.15-1.078.251-.609.174-1.241.217-1.855.362-.27.063-.543.11-.814.163a1.227 1.227 0 0 1-.46.018c-.063-.012-.114-.042-.139-.106.04-.075.121-.094.19-.12a22.392 22.392 0 0 1 4.13-1.13c.334-.058.53-.242.672-.499.102-.184.15-.403.198-.612a.318.318 0 0 0-.342-.386 5.214 5.214 0 0 0-.634.123c-.433.105-.867.206-1.294.333-.563.168-1.142.25-1.714.366-.301.06-.602.122-.904.18-.027.005-.075-.003-.085-.021-.024-.044.008-.089.046-.107a11.43 11.43 0 0 1 1.668-.669c.866-.268 1.74-.513 2.635-.674.338-.06.644-.178.919-.396.22-.175.324-.407.402-.657.063-.204-.078-.367-.299-.336-.426.062-.85.14-1.272.227a8.6 8.6 0 0 1-1.05.147c-.69.056-1.369.197-2.047.338-.184.038-.367.138-.573.093.033-.104.109-.122.18-.153.853-.36 1.743-.6 2.64-.819a23.072 23.072 0 0 1 2.355-.45c.375-.05.606-.289.737-.618.06-.15.153-.305.084-.488-.055-.15-.117-.203-.266-.184a25.548 25.548 0 0 0-4.053.884 8.56 8.56 0 0 0-.698.238 1.407 1.407 0 0 1-.405.079c-.023.002-.06-.022-.069-.043-.008-.02.004-.066.021-.077.105-.062.21-.129.322-.175 1.052-.433 2.104-.868 3.21-1.152a9.126 9.126 0 0 1 1.363-.233.788.788 0 0 0 .633-.4c.245-.396.059-1.005-.371-1.174a1.088 1.088 0 0 0-.676-.06c-.538.131-1.077.257-1.608.414-1.43.424-2.87.818-4.296 1.255-2.868.879-5.73 1.782-8.595 2.67a206.458 206.458 0 0 1-9.86 2.778c-1.76.45-3.534.83-5.318 1.165-1.618.303-3.236.61-4.858.892-1.41.244-2.82.484-4.237.694a167.13 167.13 0 0 0-6.15 1.008c-3.72.695-7.425 1.463-11.08 2.456-1.59.431-3.19.816-4.782 1.233a114.75 114.75 0 0 0-4.265 1.197c-2.284.693-4.536 1.475-6.72 2.443-.746.331-1.474.699-2.176 1.118-.106.063-.21.128-.312.197-.642.44-.519.421-.614 1.094-.017.122.056.2.18.23.191.046.354 0 .518-.115a18.623 18.623 0 0 1 2.225-1.315c.466-.238.944-.45 1.44-.622.085-.029.166-.07.264-.025-.095.14-.246.19-.374.272-.676.43-1.359.848-1.982 1.355-.178.145-.39.247-.586.368-.341.21-.68.425-1.022.632-.252.152-.35.377-.34.661.005.154.15.246.293.178.083-.04.158-.097.236-.146 1.007-.631 2.086-1.12 3.183-1.57.08-.034.167-.054.247-.078.046.092.002.14-.046.173a5.251 5.251 0 0 1-.387.25c-.373.215-.751.423-1.125.638a6.014 6.014 0 0 0-.846.561c-.25.207-.555.328-.84.48a.634.634 0 0 0-.328.422c-.05.188.031.316.218.314.137 0 .283-.005.41-.051.345-.126.697-.235 1.028-.406a18.871 18.871 0 0 1 1.813-.805c.11-.044.225-.08.352-.125-.025.163-.14.19-.222.245-.579.381-1.158.761-1.716 1.174-.256.19-.563.314-.853.454-.16.077-.228.185-.223.361.007.233.06.315.28.343.293.038.571.023.85-.124a14.26 14.26 0 0 1 1.261-.568c.227-.092.471-.14.709-.202a.319.319 0 0 1 .137-.007c.041.007.092.025.113.056.04.057-.02.08-.058.096-.455.192-.89.424-1.316.67-.346.202-.69.405-1.033.61-.183.108-.267.449-.153.606.062.085.317.167.42.125.086-.034.163-.09.247-.126.353-.153.7-.32 1.063-.445.206-.071.437-.18.66-.014-.04.097-.13.122-.205.164-.495.282-.988.567-1.486.843-.22.122-.324.32-.407.54-.053.137.01.243.097.332.088.09.193.071.298.018.33-.166.657-.34.994-.488.163-.072.328-.181.527-.123-.022.133-.144.157-.226.218-.32.239-.648.47-.97.709a2.224 2.224 0 0 0-.526.578c-.07.108-.103.229-.02.345a.318.318 0 0 0 .405.1 24.319 24.319 0 0 1 1.963-.808c.228-.084.442-.127.663-.002.114.064.144.183.052.265-.421.38-.808.808-1.374.99-.102.033-.197.087-.294.133a.426.426 0 0 0-.22.227c-.065.16-.102.339-.025.493.065.131.23.13.366.154.364.06.728.124 1.092.186.045.007.097 0 .136.02.422.214.772.504.969.946.03.068-.026.123-.095.117-.26-.024-.52-.051-.778-.09-.807-.118-1.613-.247-2.403-.455a5.075 5.075 0 0 1-1.163-.44c-.234-.127-.35-.294-.379-.577a15.557 15.557 0 0 1-.071-1.753 7.85 7.85 0 0 0-.073-1.199c-.043-.309-.13-.6-.277-.875a5.184 5.184 0 0 0-.522-.817c-.359-.446-.65-.937-.954-1.419-.402-.636-.598-1.355-.725-2.08-.103-.594-.016-1.199.141-1.786a.646.646 0 0 1 .138-.289c.223-.235.458-.464.738-.624.988-.566 1.982-1.124 3.05-1.529a.926.926 0 0 0 .45-.375 15.54 15.54 0 0 0 1.148-2.056 2.27 2.27 0 0 0 .224-1.211c-.008-.077-.011-.155-.03-.23-.096-.36-.298-.462-.653-.332a2.98 2.98 0 0 1-.22.072c-.082.024-.125.08-.155.155-.056.144-.104.292-.177.426-.235.425-.59.654-1.087.656-.514.003-1.014-.064-1.472-.314-.16-.088-.293-.24-.46-.289-.152-.045-.335.024-.502.012-.337-.026-.677-.03-1.006-.129a2.105 2.105 0 0 1-1.095-.73c-.248-.319-.322-.663-.115-1.032.094-.168.141-.33.09-.527-.057-.212.006-.43.039-.642.021-.138-.01-.235-.128-.315a1.669 1.669 0 0 1-.243-.213.846.846 0 0 1-.254-.532c-.032-.387-.03-.775.17-1.125.113-.2.11-.383.076-.61-.102-.704.04-1.347.628-1.827.172-.141.361-.237.59-.215a.524.524 0 0 0 .457-.173c.042-.045.097-.077.14-.121.536-.554 1.21-.832 1.953-.966.335-.06.675-.058 1.01.008.118.023.2.024.28-.079.267-.344.621-.597.948-.876.31-.265.688-.4 1.089-.472.186-.033.193-.046.2-.239.004-.108.002-.216.002-.324V25.016c0-.154.011-.311-.013-.462-.045-.28.044-.52.207-.733.214-.282.435-.56.665-.828 1.01-1.181 2.197-2.16 3.495-3.004 2.138-1.388 4.415-2.503 6.794-3.413.445-.17.893-.334 1.34-.5.072-.027.145-.051.22-.066.064-.013.13.01.136.083.021.276.037.553.047.83.002.08-.044.145-.13.17-.235.07-.47.147-.708.207-.598.152-1.167.385-1.734.626-1.887.803-3.715 1.722-5.433 2.847-1.283.84-2.458 1.807-3.44 2.992-.168.2-.378.391-.467.625-.083.217-.036.485-.036.73l.001 30.516c0 .197-.063.415.051.586.103.154.315.18.472.276a34 34 0 0 0 .759.44c.078.045.159 0 .162-.088.007-.17.01-.339.01-.508V25.734c0-.2.01-.401-.002-.601-.018-.284.08-.5.293-.691.378-.34.76-.676 1.17-.978 1.233-.907 2.572-1.632 3.949-2.291 1.208-.579 2.443-1.093 3.675-1.617.423-.18.863-.324 1.297-.48.071-.026.15-.031.214-.044.08.066.07.146.077.22.027.288-.026.297-.27.394-1.358.538-2.741 1.015-4.072 1.621-1.9.865-3.674 1.942-5.35 3.182-.11.082-.212.18-.305.28a.648.648 0 0 0-.166.468c.122 5.316.035 10.632.051 15.949.016 5.301.003 10.603.003 15.905v.39c.118.065.18.009.242-.03.733-.46 1.528-.52 2.359-.384a5.327 5.327 0 0 1 1.78.61c.243.137.458.31.674.484.131.106.266.21.406.303.085.057.18.05.241-.045.215-.328.521-.408.887-.334.024.005.055-.018.081-.027.018-.088-.044-.143-.087-.203-.232-.326-.473-.647-.695-.98-.106-.157-.233-.242-.42-.231-.28.015-.546-.085-.823-.102-.264-.017-.41-.16-.486-.413-.151-.503-.243-1.018-.346-1.532-.07-.347-.125-.696-.189-1.045-.016-.09-.04-.18-.058-.27-.029-.147-.087-.239-.261-.269-.409-.07-.81-.188-1.219-.254-.322-.053-.498-.217-.544-.532a21.975 21.975 0 0 1-.095-.733c-.085-.78-.177-1.561-.15-2.35.01-.33.084-.643.208-.941a1.54 1.54 0 0 1 .776-.82c.136-.066.203-.142.168-.323-.086-.438-.154-.879-.278-1.309a4.99 4.99 0 0 1-.12-.493c-.035-.194 0-.378.175-.493.198-.13.2-.296.118-.481-.239-.534-.465-1.074-.732-1.594-.275-.537-.13-.596.235-.8.013-.008.025-.018.04-.023.365-.128.547-.368.47-.769-.008-.043.005-.092.013-.137.03-.167.14-.27.273-.256.117.012.211.111.223.254.01.123.015.247.006.37-.011.157.055.253.182.341.164.113.317.244.465.379.148.136.187.303.13.504a6.53 6.53 0 0 1-.62 1.439c-.087.151-.157.298-.136.477.01.086.043.148.13.165.12.023.242.043.364.058.749.093 1.497.191 2.246.274.474.053.951.085 1.427.117.25.017.281-.032.291-.289a.64.64 0 0 0-.145-.425 5.01 5.01 0 0 1-.564-.953c-.038-.084-.08-.167-.109-.254-.08-.233-.048-.342.154-.471.181-.116.372-.218.56-.324.101-.057.159-.132.156-.257a3.093 3.093 0 0 1 .02-.414c.011-.1.135-.193.23-.193.094 0 .206.094.225.198.014.076.03.155.02.23-.04.28.092.46.307.618.147.109.27.251.4.383.147.15.16.312.064.505a5.3 5.3 0 0 1-.639 1.014.729.729 0 0 0-.162.555c.005.081.017.151.11.175.173.043.288.172.414.284.207.185.421.361.63.543.06.052.123.092.203.1.099.008.185-.002.22-.115.023-.073.052-.145.074-.219.652-2.166 1.304-4.333 1.954-6.5.035-.115.058-.233.085-.345-.134-.095-.274-.107-.41-.125-1.037-.135-2.075-.265-3.113-.398-.626-.08-1.252-.164-1.878-.24-.199-.023-.4-.026-.6-.035a.851.851 0 0 1-.398-.106.212.212 0 0 1-.103-.194c.004-.098.056-.184.152-.21a.82.82 0 0 1 .272-.018c.369.03.738.055 1.105.101.824.105 1.647.222 2.47.332.107.014.22.003.322.031.275.074.447-.002.582-.27.156-.31.446-.46.796-.467.37-.008.74-.002 1.11-.006.15-.002.188-.04.192-.194.005-.17.001-.339 0-.508-.001-.124.057-.198.175-.238.88-.304.775-.429.79.484 0 .078 0 .155.002.232.011.39-.026.39.372.504.448.128.75.419.786.915.008.112.062.17.17.174.698.022.61.206.761-.554.072-.362.16-.721.232-1.084.06-.298.159-.602-.06-.878.274-.17.277-.17.34-.469.193-.934.383-1.87.577-2.804.415-2.005.833-4.01 1.248-6.014.097-.473.158-.502-.367-.613-1.309-.277-2.612-.581-3.917-.874a.613.613 0 0 0-.091-.014c-.09-.007-.154.031-.155.125 0 .23-.05.485.029.686.094.239.395.172.61.224.358.088.719.166 1.08.241.127.026.174.095.187.22.217 2.123-.048 4.179-.877 6.153-.359.854-.816 1.657-1.29 2.451-.124.21-.277.293-.52.304-.584.027-1.169.041-1.751.115-.657.085-1.312.175-1.953.342-.357.093-.721.159-1.065.298-.039.016-.098.025-.123-.026a.21.21 0 0 1-.02-.127c.013-.06.046-.114.071-.17.526-1.159.861-2.377.997-3.637.095-.886.188-1.78.142-2.675a11.92 11.92 0 0 0-.278-2.058c-.075-.33-.153-.66-.224-.99a6.03 6.03 0 0 0-.403-1.275c-.06-.129.005-.211.15-.196.26.027.52.057.777.1.986.166 1.977.301 2.955.509.163.034.33.046.51.07.055-.28.023-.542.025-.8 0-.11-.062-.158-.168-.18-.39-.085-.779-.182-1.17-.268a29.28 29.28 0 0 0-2.499-.436c-.365-.047-.738-.039-1.107-.059a3.11 3.11 0 0 1-.365-.035.2.2 0 0 1-.161-.15c-.025-.095-.01-.185.07-.25.048-.038.104-.066.155-.1.989-.655 2.034-1.218 3.043-1.84.512-.315 1.02-.633 1.538-.938.176-.104.286-.222.276-.437a.475.475 0 0 1 .182-.408c.156-.121.168-.276.164-.453-.015-.74-.023-1.479-.031-2.219-.007-.6-.01-1.202-.014-1.803-.001-.092 0-.185.003-.277.01-.309.395-.65.733-.37.203.168.358.108.542.022.934-.439 1.84-.931 2.735-1.444.093-.054.182-.115.277-.166.12-.065.242-.038.353.023.085.047.136.12.113.228a4.255 4.255 0 0 1-.351 1 6.104 6.104 0 0 1-1.61 2.002 1.92 1.92 0 0 1-.435.26c-.392.18-.78.367-1.174.541-.147.065-.21.158-.207.318.01.678.012 1.356.017 2.034.001.11.003.208.13.267.215.098.267.29.232.504-.03.182.01.321.147.455 1.033 1.019 1.944 2.147 2.892 3.242.383.443.783.871 1.177 1.303.05.055.097.123.198.13.085-.085.093-.21.117-.322.127-.587.244-1.175.37-1.763a1.656 1.656 0 0 0-.023-.818 14.874 14.874 0 0 0-.864-2.287c-.033-.07-.07-.137-.102-.207-.127-.274-.095-.34.192-.327.446.021.89.064 1.336.095.157.01.184-.009.22-.165.05-.225.095-.452.14-.678.023-.112-.032-.173-.137-.199-.761-.187-1.521-.38-2.285-.558-.344-.08-.682-.193-1.041-.196a.23.23 0 0 1-.127-.048c-.076-.059-.126-.137-.101-.239a.224.224 0 0 1 .142-.167.714.714 0 0 1 .41-.012c.512.109 1.024.215 1.532.335.524.124 1.044.263 1.566.393.13.033.171.012.202-.113.038-.149.068-.3.092-.452.02-.12-.021-.167-.154-.163-.43.012-.863-.017-1.29.071-.165.034-.336.042-.504.058-.053.006-.114-.083-.088-.129a6.72 6.72 0 0 1 .214-.354c.5-.766.88-1.586 1.14-2.463a6.187 6.187 0 0 0 .065-3.374c-.089-.343-.136-.695-.227-1.037-.09-.341-.206-.677-.323-1.01-.12-.35-.254-.694-.385-1.04-.071-.187-.02-.245.195-.216.016.001.03.005.046.008l3.221.595c.162.03.2.002.205-.147.015-.528.006-.54-.526-.649l-3.163-.652a2.375 2.375 0 0 1-.267-.071c-.128-.043-.197-.137-.223-.27-.02-.102-.005-.187.096-.23.14-.06.284-.118.429-.167.83-.284 1.678-.504 2.523-.736.104-.028.207-.07.312-.08.193-.022.265-.123.253-.308a.486.486 0 0 1 .247-.465c.117-.075.15-.179.145-.314-.025-.693-.043-1.386-.063-2.08L31.718.977c-.002-.061 0-.123.001-.184a.439.439 0 0 1 .296-.426c.194-.078.388-.042.5.12.136.196.286.189.48.138 1.124-.297 2.273-.395 3.43-.421.77-.018 1.54-.03 2.306.085.685.103 1.37.205 2.04.381.025.007.043.035.065.054-.19.418-.782 1.192-1.444 1.888.002.015 0 .033.008.044.008.011.025.018.038.02l.639.095c.472.072.945.109 1.424.115.631.008 1.261.062 1.891.097a.58.58 0 0 1 .092.012c.099.025.17.077.146.193-.028.134.05.155.154.153.216-.004.432-.004.647-.015.615-.03 1.233.02 1.846-.07.03-.004.062 0 .093.002.104.007.174.064.191.165.015.085-.036.151-.112.18-.171.066-.343.14-.522.18a9.81 9.81 0 0 1-1.276.198c-.353.03-.705.07-1.058.104-.314.03-.611-.03-.9-.153-.227-.096-.462-.172-.685-.275-.204-.094-.383-.062-.57.04-.367.198-.727.41-1.042.682a.561.561 0 0 1-.41.156c-.292-.005-.585.006-.877.007-.108 0-.217-.003-.323-.017-.163-.02-.256-.146-.202-.293a3.71 3.71 0 0 1 .233-.5.922.922 0 0 0 .12-.578c-.012-.09-.045-.177-.076-.263-.046-.13-.138-.198-.28-.195-.416.012-.833.01-1.248.034-.706.042-1.412.102-2.11.229-.697.126-1.388.274-2.05.53-.431.167-.374.158-.36.522.011.293.014.585.022.878.002.1.032.173.145.2.287.07.386.283.389.554.001.2-.002.4-.011.6-.005.102.022.18.109.237.064.043.125.09.189.133l3.416 2.29c.025.016.049.042.077.05.416.108.697.42 1.028.664 2.194 1.619 4.396 3.227 6.596 4.838.199.146.4.288.603.428.047.033.094.083.163.06.079-.027.059-.1.063-.156a11.669 11.669 0 0 0-.41-3.887c-.14-.503-.267-1.014-.552-1.464a.425.425 0 0 1-.058-.125c-.02-.085-.099-.172-.032-.26.09-.118.194-.026.292 0 1.04.28 2.082.548 3.097.907.07.024.165.073.206-.006.073-.141.043-.302.01-.451-.028-.125-.146-.14-.251-.17-.859-.241-1.716-.487-2.575-.725-.311-.087-.626-.158-.94-.238-.089-.022-.182-.037-.265-.074-.092-.04-.13-.128-.121-.228.007-.081.046-.149.124-.179.057-.021.12-.026.18-.04.76-.195 1.539-.3 2.311-.437.242-.043.487-.074.73-.118.153-.028.25-.114.358-.244.196-.237.227-.475.2-.76-.08-.89-.144-1.782-.217-2.672-.01-.123-.034-.244-.005-.367.041-.18.14-.32.32-.359.257-.053.42-.019.527.174.022.04.052.076.073.118.064.132.162.165.303.13a11.32 11.32 0 0 1 1.589-.283c.214-.022.429-.052.643-.06.847-.028 1.695-.03 2.54.05.046.004.092 0 .138.008.19.03.27.12.27.31-.002.107-.017.214-.027.322-.013.138-.033.275-.042.414-.021.35-.015.37.33.39.563.035 1.081.214 1.57.492.402.228.816.433 1.243.61.576.239 1.168.384 1.796.364.098-.003.205-.036.297.033-.018.084-.088.096-.142.107-.346.072-.691.15-1.05.144-.523-.007-1.047-.008-1.571-.008a.997.997 0 0 1-.528-.136 3.634 3.634 0 0 0-2.352-.488c-.045.006-.091.015-.138.015-.094 0-.184-.072-.186-.167-.002-.123.01-.246.021-.368.032-.337.067-.674.098-1.011.009-.088-.048-.123-.152-.106a1.08 1.08 0 0 0-.425.168c-.351.228-.68.486-.936.817-.172.223-.384.336-.646.403-.34.09-.684.171-1.03.327.022.182.14.307.228.441 1.386 2.149 2.766 4.302 4.167 6.44 2.457 3.75 4.966 7.466 7.586 11.105 1.864 2.59 3.818 5.11 5.829 7.587.057.07.123.133.19.193.012.01.074-.011.077-.024a1.39 1.39 0 0 0 .02-.229v-2.034c0-1.125.007-2.25-.002-3.375-.006-.678-.043-1.356-.053-2.033-.003-.18-.094-.28-.22-.378a19.581 19.581 0 0 0-2.576-1.711c-1.103-.616-2.247-1.148-3.398-1.667-.21-.094-.415-.21-.634-.277-.47-.143-.7-.503-.904-.901.075-.06.136-.028.188-.004 1.815.84 3.651 1.638 5.363 2.683.817.499 1.597 1.048 2.303 1.697.478.44.482.438.482 1.074v7.444c0 .123.002.246 0 .37 0 .127.03.239.116.34.407.482.81.967 1.208 1.444.13-.033.106-.121.107-.191.003-.231.001-.463.001-.694v-9.247c0-.061-.006-.124.002-.185.024-.182-.05-.323-.16-.462a14.435 14.435 0 0 0-2.017-2.095c-1.148-.967-2.41-1.763-3.725-2.48a39.567 39.567 0 0 0-5.293-2.398c-.13-.048-.258-.1-.388-.147a.535.535 0 0 1-.281-.225 72.53 72.53 0 0 0-.664-1.001c-.056-.083-.089-.163-.036-.258l-.003.008z"/><path d="M68.934 73.849c-.085.095-.074.175-.075.25-.037 1.432-.173 2.858-.267 4.288-.026.383-.093.763-.144 1.144-.02.15-.057.296-.172.403-.08-.024-.102-.083-.109-.143-.024-.214-.067-.43-.06-.643.02-.63.058-1.26.096-1.89.058-.97.122-1.937.183-2.905.003-.04.015-.088-.033-.107-.058.01-.077.052-.091.096-.087.28-.172.56-.262.837-.368 1.127-.792 2.233-1.215 3.34a.726.726 0 0 0 .037.65c.465.905 1.017 1.756 1.565 2.611.197.309.427.598.552.969.449-1.355.46-6.716-.005-8.9m-55.842.454c-.013.028-.02.028-.02 0l.026.007c-.091.14-.025.267.036.392.32.648.629 1.302.964 1.942.307.585.644 1.156.965 1.734.11.197.22.396.254.662-.245-.102-.38-.264-.51-.435a11.556 11.556 0 0 1-.847-1.319 29.68 29.68 0 0 1-1.313-2.644c-.058-.134-.084-.294-.223-.388-.04.08-.017.155.004.229.14.487.27.978.422 1.461a15.375 15.375 0 0 0 1.774 3.792c.26.4.545.783.878 1.128.104.107.196.157.36.11.79-.22 1.59-.354 2.414-.258.04.004.082-.012.121-.017.003-.026.012-.049.005-.056a4.23 4.23 0 0 0-.194-.195c-1.107-1.027-2.173-2.095-3.093-3.295-.646-.843-1.258-1.712-1.883-2.57-.062-.085-.146-.162-.14-.28m48.329 4.74c.345.042.602.002.86-.014.569-.034 1.138-.057 1.707-.083.046-.002.093 0 .139.004.283.021.308.053.274.34-.013.106-.03.213-.037.32-.041.664-.294 1.253-.646 1.804-.85 1.333-1.975 2.397-3.262 3.297a20.162 20.162 0 0 1-5.313 2.643 11.95 11.95 0 0 1-3.722.595c-.898.003-1.735-.213-2.539-.595-.8-.381-1.507-.899-2.16-1.492a15.25 15.25 0 0 1-1.657-1.8 4.122 4.122 0 0 1-.552-.906c-.373-.852-.622-1.733-.68-2.67-.038-.585-.082-1.168-.073-1.754.001-.093.002-.185.005-.278.003-.105.056-.172.159-.196.06-.014.12-.023.182-.033.207-.033.254-.005.276.191.036.322.064.644.098.966.112 1.043.273 2.074.633 3.067.154.424.356.814.643 1.165.744.91 1.543 1.762 2.515 2.436.702.487 1.456.871 2.307 1.012.64.105 1.289.08 1.934.018 1.84-.176 3.522-.845 5.153-1.659a17.154 17.154 0 0 0 3.003-1.895c.854-.676 1.57-1.476 2.195-2.36.214-.303.385-.632.53-.974.035-.084.081-.166.034-.282a3.64 3.64 0 0 0-.816.03c-.706.09-1.416.036-2.125.06a.654.654 0 0 1-.265-.064c-.17-.073-.218-.192-.161-.376.078-.252.213-.477.354-.698.633-.991 1.396-1.879 2.199-2.734.19-.202.384-.4.573-.603a25.45 25.45 0 0 1 2.65-2.508c.359-.29.7-.603 1.04-.917a8.85 8.85 0 0 1 1.023-.789.788.788 0 0 1 .161-.089c.316-.12.632-.241.951-.355.13-.046.194-.013.267.11.087.146.136.307.178.473.196.793.335 1.596.456 2.403.336 2.236.346 4.484.259 6.734a17.665 17.665 0 0 1-.366 2.932c-.038.18-.098.356-.151.533-.018.059-.034.124-.071.169-.191.227-.36.263-.541.072-.276-.291-.55-.583-.768-.922a53.12 53.12 0 0 0-.506-.773c-.05-.074-.099-.156-.202-.18-.129.167-.168.365-.237.547-.536 1.428-1.323 2.71-2.278 3.889-.406.5-.849.976-1.35 1.39-.273.226-.518.485-.787.715-1.233 1.053-2.56 1.972-3.95 2.803-.702.419-1.434.777-2.152 1.165-.149.08-.309.138-.462.21-.432.203-.872.39-1.292.616-1.1.588-2.22 1.137-3.343 1.678-.762.366-1.52.743-2.283 1.109-.333.16-.671.308-1.012.452a47.664 47.664 0 0 0-3.884 1.826c-1.102.586-2.259 1.056-3.35 1.658-.336.184-.636.152-.96-.026-1.255-.686-2.505-1.385-3.78-2.034a48.837 48.837 0 0 0-3.14-1.46 117.646 117.646 0 0 1-4.506-2.02c-1.1-.52-2.204-1.028-3.279-1.598a8.94 8.94 0 0 0-.754-.35 27.157 27.157 0 0 1-1.88-.88c-1.239-.627-2.437-1.32-3.554-2.147-.1-.074-.194-.156-.3-.216-.541-.306-1.007-.711-1.468-1.12-.61-.54-1.24-1.06-1.79-1.668-.581-.642-1.117-1.314-1.542-2.07-.301-.538-.608-1.072-.912-1.607-.03-.055-.06-.108-.156-.129-.205.25-.383.536-.557.822-.374.62-.83 1.189-1.147 1.842-.108.223-.457.222-.56-.003-.076-.168-.169-.33-.234-.502a15.912 15.912 0 0 1-.97-4.17 33.567 33.567 0 0 1-.174-3.228c.002-.866.087-1.723.195-2.579a3.4 3.4 0 0 1 .085-.406c.328-1.3.895-2.488 1.661-3.584.203-.29.478-.306.733-.056.11.108.218.218.284.361.423.915 1.008 1.729 1.588 2.545.669.942 1.33 1.89 2.066 2.782a26.738 26.738 0 0 0 2.861 2.95c.253.226.478.483.765.669.111.072.152.192.186.31.062.217-.001.326-.226.361-.364.057-.725.15-1.099.12a.22.22 0 0 0-.046 0c-.192.018-.404-.043-.558.134.02.198.171.32.276.468.81 1.132 1.85 2.017 3.002 2.779a19.084 19.084 0 0 0 4.288 2.13c1.235.429 2.504.635 3.81.582.562-.023 1.087-.2 1.597-.425.915-.404 1.69-1.008 2.404-1.696.19-.18.357-.384.548-.563.752-.705 1.184-1.602 1.54-2.545.148-.395.169-.813.211-1.226.056-.536.106-1.073.097-1.614-.003-.217.044-.288.25-.314.555-.07.58-.29.574.455-.008.788-.097 1.568-.197 2.347-.04.323-.174.622-.279.927-.12.35-.234.699-.426 1.02a6.3 6.3 0 0 1-.582.832c-.786.936-1.637 1.801-2.66 2.483a7.045 7.045 0 0 1-2.085.968c-.692.186-1.396.194-2.109.145-2.072-.144-3.95-.893-5.76-1.842a17.906 17.906 0 0 1-2.861-1.864c-1.01-.806-1.839-1.772-2.546-2.848-.05-.077-.114-.15-.15-.233-.085-.196-.234-.23-.418-.182-.223.058-.453.101-.664.19-.22.091-.389.033-.552-.1-.072-.059-.13-.131-.194-.199-.544-.574-.977-1.23-1.368-1.912-.98-1.714-1.6-3.562-1.995-5.49-.056-.27-.081-.546-.12-.819-.113.009-.124.096-.151.16-.144.34-.274.686-.425 1.023-.419.929-.58 1.913-.621 2.92a26.466 26.466 0 0 0 .285 5.067c.1.671.26 1.33.474 1.973.02.058.052.11.084.176.131-.023.154-.137.201-.22.367-.644.772-1.262 1.217-1.853.131-.175.277-.326.5-.39.255-.073.464 0 .575.239.104.223.168.466.287.68.583 1.05 1.118 2.127 1.895 3.058.355.427.736.828 1.138 1.21.29.276.596.537.9.797.492.42.975.85 1.534 1.185.329.198.623.453.941.67a23.849 23.849 0 0 0 3.831 2.126c1.157.509 2.27 1.102 3.414 1.632 1.354.627 2.695 1.28 4.054 1.9.853.387 1.728.727 2.587 1.105a52.154 52.154 0 0 1 4.498 2.252c.401.225.818.424 1.233.625.17.083.227.044.23-.136.006-.278.006-.555.006-.832V79.2c0-.14-.003-.278.003-.417.009-.225.205-.334.422-.231a.15.15 0 0 1 .073.104c.012.153.015.308.015.461l.001 17.106c0 .956.005 1.911.008 2.867 0 .077 0 .154.003.23.007.174.047.203.19.138.127-.057.251-.12.375-.182l4.256-2.12c.192-.095.379-.201.6-.23.088-.01.174-.057.257-.095 1.108-.5 2.228-.972 3.32-1.506 1.574-.772 3.171-1.5 4.711-2.342.337-.185.686-.35 1.038-.505.479-.21.945-.447 1.412-.683a26.65 26.65 0 0 0 2.865-1.682 25.584 25.584 0 0 0 3.595-2.892c.62-.603 1.203-1.247 1.643-1.991.65-1.1 1.258-2.227 1.59-3.475a5.3 5.3 0 0 1 .281-.83.494.494 0 0 0-.035-.48c-.229-.402-.433-.817-.662-1.218-.134-.234-.134-.45-.04-.7.443-1.198.876-2.4 1.306-3.603.26-.727.438-1.475.58-2.233.016-.09.018-.183.02-.275a.065.065 0 0 0-.093-.063 1.544 1.544 0 0 0-.265.183c-.85.737-1.701 1.473-2.543 2.218-.183.162-.329.366-.5.542-.379.384-.764.762-1.144 1.145a21.379 21.379 0 0 0-1.826 2.086c-.11.145-.213.296-.371.517M49.416 67.297c.084-.007.112-.064.133-.12.43-1.17.863-2.339 1.286-3.51.1-.275.17-.56.246-.841.036-.134.105-.205.243-.238.553-.135 1.102-.282 1.653-.419.136-.033.204.025.188.175a5.9 5.9 0 0 1-.11.729 2.002 2.002 0 0 0 0 .911c.259 1.171.504 2.346.741 3.523.056.279.154.529.31.763.111.165.212.338.317.51.144.234.14.247-.146.323-.178.047-.36.076-.54.115-.33.073-.66.149-.99.22-.116.024-.178-.022-.2-.131l-.776-3.802c-.11-.008-.106.09-.124.143-.317.998-.711 1.968-1.062 2.953-.135.377-.267.755-.376 1.14-.055.19-.157.277-.343.314-.497.1-.992.211-1.488.316a.86.86 0 0 1-.184.01c-.074 0-.113-.05-.109-.117.013-.2.023-.4.053-.597a2.714 2.714 0 0 0-.028-1.006 117.6 117.6 0 0 1-.645-3.213 2.162 2.162 0 0 0-.243-.691c-.169-.293-.34-.586-.506-.88-.087-.156-.066-.209.114-.263.162-.05.327-.09.492-.124.39-.08.782-.162 1.174-.233.177-.032.216.004.235.186.098.982.325 1.942.501 2.91.057.316.123.63.184.944"/><path d="M26.601 71.3c.055-.002.084-.037.1-.082.34-.941.744-1.856 1.137-2.776.157-.367.317-.734.416-1.124.023-.093.063-.172.171-.192.575-.106 1.149-.215 1.723-.319.07-.012.156.077.15.144-.004.03-.006.062-.019.09-.225.524-.15 1.05-.031 1.585.252 1.126.492 2.254.735 3.382.043.2.111.383.242.543.078.094.157.194.21.303.072.146.306.245.227.417-.057.125-.277.085-.422.116-.421.09-.847.153-1.273.218-.181.027-.239-.015-.264-.17-.156-.959-.422-1.893-.618-2.841l-.18-.866c-.052.058-.095.086-.109.124-.352.936-.706 1.87-1.047 2.81-.136.376-.26.76-.349 1.148-.047.206-.149.284-.332.314-.167.027-.332.061-.499.09l-1.168.206c-.088-.088-.073-.182-.064-.273.015-.138.032-.276.05-.413.042-.308.039-.61-.031-.917a202.31 202.31 0 0 1-.778-3.515c-.081-.386-.32-.656-.558-.938-.078-.092-.253-.152-.22-.275.044-.163.235-.098.364-.125a91.72 91.72 0 0 1 1.22-.242c.106-.02.214-.03.321-.04.115-.01.17.052.179.16.048.539.18 1.061.29 1.589.126.617.263 1.233.397 1.849.002.008.02.013.03.02m31.083-3.11c-.124.098-.26.122-.394.155-.403.097-.804.206-1.207.304-.137.034-.207-.02-.221-.152-.001-.015-.003-.031-.002-.046.042-.733-.134-1.436-.292-2.143-.212-.946-.427-1.891-.613-2.842a2.418 2.418 0 0 0-.483-1.083c-.41-.51-.318-.517.216-.665.414-.115.833-.215 1.25-.317.213-.05.252-.026.272.178.074.737.272 1.452.407 2.177.009.045.027.088.043.132.031.089.093.11.18.086.31-.087.623-.17.933-.259.413-.118.827-.238 1.239-.362.146-.044.172-.085.136-.235-.177-.748-.357-1.496-.537-2.244-.042-.173-.025-.222.135-.27.5-.15 1.002-.297 1.503-.442.105-.03.184.036.18.147-.01.292-.027.584-.039.876-.01.247.013.487.075.73.32 1.268.632 2.538.941 3.809.056.23.165.429.3.618.09.125.185.247.27.375.134.201.12.258-.1.33-.365.12-.733.231-1.1.343a6.243 6.243 0 0 1-.446.117c-.108.024-.177-.023-.194-.139-.109-.717-.32-1.41-.482-2.114-.02-.09-.043-.18-.07-.268-.051-.163-.1-.194-.271-.146-.682.189-1.362.38-2.041.576-.236.068-.264.114-.202.369.183.747.326 1.504.568 2.236.018.056.031.114.046.169M21.93 72.95c-.003-.047-.004-.093-.01-.139-.065-.538-.423-.81-.964-.726-.197.03-.394.062-.59.101-.21.043-.43.033-.632.12-.062.026-.107.064-.092.136.09.435.183.871.277 1.306.023.104.095.158.203.141a18.254 18.254 0 0 0 1.31-.255.647.647 0 0 0 .498-.684m-3.682 2.7c.109-.41.143-.776.17-1.145a1.777 1.777 0 0 0-.037-.504l-.64-2.975a1.655 1.655 0 0 0-.275-.63c-.188-.26-.374-.522-.558-.78.063-.126.174-.13.274-.157a73.767 73.767 0 0 1 4.35-1.015c.09-.018.178-.044.268-.066.368-.089.393-.076.471.274.054.24.105.48.154.721.037.185.008.231-.162.248-.98.095-1.938.325-2.909.478-.2.032-.24.083-.186.28.193.713.015.73.809.569.286-.059.578-.082.863-.143a3.348 3.348 0 0 1 1.01-.046c.48.043.897.248 1.179.645.475.669.653 1.422.499 2.232-.13.675-.554 1.117-1.193 1.352-.406.15-.835.206-1.259.276-.773.128-1.548.24-2.323.352-.15.022-.304.021-.505.035m28.516-5.015c-.218.137-.476.107-.711.168-.327.085-.663.13-.996.192-.17.03-.225-.005-.258-.171l-.315-1.583-.621-3.123c-.012-.06-.019-.121-.03-.182-.019-.087-.073-.136-.163-.122-.274.043-.546.09-.818.138a13.78 13.78 0 0 0-.453.088c-.21.045-.25.093-.225.322.035.322.078.642.125.962.128.867.26 1.735.387 2.602.016.106.025.215.022.322-.025.81-.444 1.373-1.254 1.539a3.3 3.3 0 0 1-.872.051c-.164-.01-.218-.062-.227-.232-.017-.292-.02-.584-.026-.877-.002-.104.008-.209.012-.3.127-.067.231.01.338-.005.206-.029.342-.144.366-.353.014-.12.01-.247-.01-.367a59.522 59.522 0 0 1-.454-3.152c-.042-.377-.189-.71-.38-1.029-.071-.119-.151-.233-.225-.35-.077-.123-.044-.209.091-.23.213-.033.427-.059.639-.094 1.304-.216 2.594-.499 3.888-.765.18-.037.353-.109.531-.154.331-.084.4-.023.34.3-.03.165-.064.332-.112.494a1.233 1.233 0 0 0-.02.594c.217 1.117.44 2.233.648 3.352.103.555.375 1.038.608 1.538.063.136.165.257.175.427m-14.472-4.19c.095-.042.135-.065.179-.077.074-.02.15-.038.226-.047 1.753-.213 3.474-.616 5.176-.923.09.054.078.105.06.142-.242.511-.223 1.053-.15 1.588.08.594.197 1.184.318 1.771.168.814.352 1.624.536 2.434.044.195.112.384.168.575.036.125.009.188-.1.207-.425.072-.85.145-1.276.207-.2.029-.22.007-.255-.167-.3-1.525-.674-3.034-.942-4.566-.063-.36-.017-.414-.479-.33-.348.062-.697.12-1.044.187-.166.032-.21.097-.187.257.16 1.065.318 2.13.484 3.195.046.29.073.58.05.873-.05.637-.423 1.096-1.028 1.28-.361.11-.728.112-1.098.076-.104-.01-.169-.074-.172-.182-.013-.37-.024-.739-.031-1.108-.003-.112.058-.152.173-.155.47-.016.562-.119.51-.593-.034-.32-.095-.64-.143-.958-.117-.777-.238-1.553-.345-2.33-.04-.28-.114-.537-.28-.771-.122-.175-.22-.366-.35-.585m31.479-.027c-.082-.125-.047-.25-.043-.37a4.798 4.798 0 0 0-.187-1.502c-.32-1.125-.62-2.256-.909-3.39a1.655 1.655 0 0 0-.356-.687c-.151-.175-.304-.348-.452-.525-.076-.092-.062-.183.041-.224.2-.08.401-.155.607-.214 1.108-.32 2.215-.639 3.326-.945.2-.055.415-.242.6-.126.156.097.154.355.22.542.125.348.245.698.37 1.044.038.103.078.204.065.313-.006.045-.035.087-.094.07a2.097 2.097 0 0 1-.582-.27.644.644 0 0 0-.61-.068c-.466.16-.94.295-1.408.444-.086.027-.166.073-.24.106-.037.145.032.257.065.372a611.92 611.92 0 0 0 1.078 3.773c.08.28.181.555.273.833.063.191.046.236-.152.307-.347.125-.696.246-1.047.358-.187.06-.363.168-.565.159M43.5 96.909c.418-.418.894-.744 1.325-.923 1.505-.626 3.019-1.231 4.514-1.881 2.328-1.013 4.599-2.148 6.85-3.321 1.119-.584 2.237-1.168 3.307-1.841.234-.148.467-.297.699-.45a8.555 8.555 0 0 0 1.095-.842c.613-.563 1.233-1.117 1.833-1.694.32-.308.687-.568 1.035-.848.014-.011.062-.003.075.013.015.018.02.064.007.08-.224.274-.441.555-.68.815-.66.714-1.395 1.35-2.125 1.99-.77.674-1.637 1.203-2.517 1.71-1.947 1.125-3.962 2.12-5.974 3.12-2.483 1.232-5.038 2.297-7.605 3.336-.5.203-.995.413-1.492.617-.095.039-.191.079-.347.119m8.816-20.277c.001-.088.043-.132.13-.16a82.695 82.695 0 0 0 2.875-.984c.752-.277 1.531-.454 2.308-.638 1-.236 2.003-.47 3.004-.704.852-.2 1.711-.366 2.548-.626.026-.008.059.007.088.012.03.07-.024.11-.062.152-.135.148-.283.284-.407.44-.17.214-.39.332-.64.428-1.31.498-2.654.878-4.04 1.095-1.23.193-2.463.361-3.692.557-.71.113-1.426.211-2.117.422l.005.006z"/><path d="M63.085 85.29c-.81.663-1.532 1.427-2.393 2.03-.568.397-1.148.775-1.747 1.124-1.968 1.144-3.952 2.26-6.027 3.206-1.861.848-3.75 1.631-5.646 2.395-.367.148-.736.292-1.115.442-.003-.12.077-.137.133-.174.245-.161.491-.319.733-.482.218-.147.45-.262.693-.362 1.693-.693 3.387-1.384 5.045-2.157 1.353-.63 2.69-1.29 3.977-2.05.502-.297 1.021-.567 1.536-.843.366-.198.724-.407 1.064-.647.567-.397 1.14-.786 1.704-1.189.4-.286.792-.585 1.18-.887.21-.163.44-.282.678-.393a.202.202 0 0 1 .176-.004l.009-.009zM42.77 94.678c-.076.005-.105-.05-.133-.105a1.673 1.673 0 0 1-.164-.574 17.13 17.13 0 0 1-.099-1.149c-.053-1.122-.1-2.244-.14-3.366-.01-.275.012-.552.012-.828.003-2.494.006-4.987.004-7.48 0-.8.072-1.596.175-2.393.032.457.075.914.092 1.372.022.584.014 1.17.035 1.754.095 2.599.047 5.2.072 7.8.009.906.074 1.813.107 2.72.026.723.044 1.446.064 2.168 0 .027-.017.054-.025.081M20.614 82.63c.09-.087.202-.044.302-.04.944.033 1.872-.114 2.802-.238.976-.13 1.951-.275 2.936-.323.17-.008.337-.035.506-.049.075-.006.152-.005.227.002.023.002.053.034.062.058.008.021 0 .065-.016.075-.065.04-.133.073-.203.104-.606.27-1.245.441-1.88.626-.472.138-.947.268-1.415.419-.195.062-.394.07-.59.099-.488.068-.974.145-1.469.154-.178.003-.329-.03-.468-.149-.221-.19-.455-.367-.68-.554-.053-.045-.13-.086-.114-.184m22.45-3.865c.042.515.062.975.119 1.43.12.966.08 1.936.08 2.904.002 1.6.064 3.198.153 4.795.025.446.019.892.025 1.338.013.834.108 1.658.298 2.47.066.282.182.553.265.833.025.081.108.158.045.257-.115-.027-.179-.113-.228-.209-.085-.163-.185-.324-.239-.497a13.11 13.11 0 0 1-.4-1.608c-.182-1.024-.083-2.058-.168-3.084-.06-.737-.104-1.475-.071-2.214.09-2.03.021-4.06.052-6.091.001-.09-.018-.184.07-.324m-25.741 4.126c.128-.003.147.083.192.136 1.74 2.067 3.81 3.713 6.268 4.846.892.411 1.788.823 2.74 1.09a.665.665 0 0 1 .125.053c.054.029-.001-.02.007.04.003.02-.026.063-.045.065a.564.564 0 0 1-.18-.001c-1.755-.362-3.365-1.067-4.867-2.034-1.093-.702-2.083-1.531-3.036-2.408a3.59 3.59 0 0 1-.712-.902l-.492-.885m40.499 4.804a54.562 54.562 0 0 1-10.076 4.849c-.037-.124.053-.138.107-.175a5.987 5.987 0 0 1 1.133-.612c1.923-.781 3.78-1.702 5.628-2.645.286-.146.585-.27.883-.394a14.521 14.521 0 0 0 1.698-.824c.156-.09.306-.207.627-.199m-26.501 6.208c.297.055.57.148.828.277 1.71.853 3.483 1.55 5.307 2.118.395.123.394.128.598.504-.11.044-.21.005-.314-.026a39.458 39.458 0 0 1-4.2-1.539 2.232 2.232 0 0 1-.248-.124c-.598-.348-1.196-.699-1.795-1.046-.065-.039-.135-.069-.176-.164M44.8 90.845c-.117-.02-.147-.116-.186-.196a4.135 4.135 0 0 1-.314-.962c-.195-.922-.267-1.857-.296-2.797-.011-.37-.024-.738-.028-1.108-.002-.181-.012-.367.056-.563.027.081-.004-.031.04.011.011.01.019.027.02.042.035.305.072.61.101.917.09.934.133 1.873.283 2.8.092.577.216 1.149.323 1.723.008.042.001.088.001.133m21.643-10.432c.08.096.059.205.028.307a16.893 16.893 0 0 1-1.174 2.955.18.18 0 0 1-.055.072c-.022.013-.056.011-.084.01-.007 0-.019-.028-.017-.04.068-.393.132-.788.281-1.16.11-.272.235-.537.329-.813.165-.486.398-.932.708-1.34l-.016.009zm-14.539 9.252c0 .029.01.07-.004.083a.578.578 0 0 1-.152.097c-.794.325-1.589.647-2.407.906-.132.042-.26.084-.402.06-.04-.11.058-.13.11-.16.092-.051.196-.082.296-.12.84-.332 1.693-.625 2.562-.87l-.003.004zM34.017 55.473c0 .183.005.367-.002.55-.005.165-.056.234-.203.258-.256.043-.513.073-.77.108a.378.378 0 0 1-.092-.003c-.2-.02-.298-.117-.3-.329-.007-.412-.002-.826-.002-1.239 0-.015.002-.03.004-.045.014-.102.072-.176.17-.19.304-.04.608-.071.912-.102.125-.013.205.053.233.172.024.103.043.21.048.315.008.168.002.337.002.505zm8.263-1.587c0 .168.006.336-.003.504-.008.134-.081.229-.22.258-.268.057-.535.122-.806.166-.246.039-.378-.076-.383-.326-.007-.382-.004-.765-.004-1.147 0-.138.062-.226.2-.269.278-.087.557-.166.85-.177.17-.006.256.054.304.217.025.087.041.179.045.27.007.167.002.336.002.504h.014zM25.512 55.84c-.01-.17-.034-.339-.029-.507.01-.276.123-.398.388-.413.23-.013.462-.01.691.006.171.012.244.095.266.264.052.4.017.799-.017 1.197a.304.304 0 0 1-.27.277c-.274.036-.552.045-.823-.04-.115-.036-.185-.11-.188-.232-.003-.184 0-.369 0-.553h-.018zm-3.358-.329c.005-.102.008-.303.028-.501.02-.19.082-.26.256-.263.23-.003.462.002.689.032.215.028.309.13.315.333.012.399.034.8-.027 1.197-.032.205-.103.265-.308.25a9.468 9.468 0 0 1-.641-.068c-.224-.032-.3-.112-.31-.33-.01-.183-.002-.368-.002-.65m15.696-.694c0 .153.006.306-.002.459-.01.196-.105.331-.283.369-.238.05-.481.085-.724.108-.174.015-.287-.095-.29-.28-.004-.382-.002-.765.013-1.146.009-.217.067-.273.267-.308.225-.04.452-.08.68-.097.199-.016.286.06.309.254.025.212.028.427.04.64l-.01.001m-8.812.973c0-.2-.002-.4 0-.601.003-.163.102-.25.25-.292.18-.051.368-.036.55-.018.452.044.497.199.503.517.005.308.026.616.016.924-.007.228-.094.3-.32.301-.261.001-.524-.004-.785-.02-.128-.009-.197-.083-.203-.21-.01-.2-.003-.401-.003-.601h-.008zm-8.79-.416c0 .198.007.398-.003.596-.007.14-.09.232-.223.252a2.526 2.526 0 0 1-.73.014c-.146-.02-.226-.096-.231-.242a34.34 34.34 0 0 1-.015-1.191c0-.127.095-.201.207-.208a8.65 8.65 0 0 1 .778-.014c.14.004.215.093.221.243.008.183.002.366.002.55h-.006zm25.008-1.814c-.067-.45-.132-.842-.137-1.24-.003-.22.039-.282.235-.334.296-.078.594-.152.894-.212.172-.034.265.026.327.18.04.1.071.203.096.307.036.15.06.31.008.455-.05.14-.212.158-.332.218a8.45 8.45 0 0 0-1.091.626m-22.8 10.877c-.456-.15-.794-.498-1.193-.746s-.79-.51-1.228-.793c.011.357.14.619.26.882.05.111.12.214.173.325a.857.857 0 0 1 .076.216.258.258 0 0 1-.082.25c-.093.083-.199.083-.302.04-.161-.068-.268-.204-.383-.329-.709-.77-1.417-1.542-2.125-2.315-.052-.056-.102-.115-.153-.173-.056-.064-.118-.1-.197-.039-.15.115-.313.12-.481.058-.147-.053-.267-.023-.385.076-.335.28-.724.196-1.105.15a.315.315 0 0 1-.159-.087 6.464 6.464 0 0 1-.747-.817c-.024-.03-.021-.063.009-.075.026-.011.066-.024.084-.012.076.05.145.111.22.164.318.227.659.394 1.065.383.11-.003.217-.013.303-.089.177-.156.375-.262.626-.235.008-.168.01-.29.02-.411a.285.285 0 0 1 .176-.253.275.275 0 0 1 .336.077c.19.221.374.45.556.678.48.603 1.023 1.15 1.545 1.716.031.034.072.057.126.04.04-.12-.013-.237-.024-.357-.009-.107-.025-.217-.014-.322.024-.23.224-.358.435-.263.152.068.296.167.424.275.482.409.956.826 1.431 1.241.255.221.507.445.76.667-.015.026-.03.052-.047.078m27.505-6.524c-.024.113-.124.13-.207.15-.402.1-.805.2-1.21.283-1.657.335-3.312.674-4.972.991-1.433.274-2.872.521-4.308.779-.575.103-1.15.204-1.725.305a.86.86 0 0 1-.181.017c-.02-.002-.043-.037-.059-.061-.021-.033-.01-.061.026-.075.072-.028.141-.063.215-.078 1.16-.231 2.32-.46 3.48-.689l3.57-.706c1.176-.233 2.35-.467 3.527-.697.512-.1 1.02-.226 1.543-.262.101-.006.21-.042.301.043m-8.256.824c-.033-.001-.066.004-.093-.006-.024-.01-.053-.034-.058-.057-.005-.024.009-.071.026-.078.129-.047.257-.1.39-.127 1.43-.297 2.858-.607 4.297-.863 1.014-.18 2.022-.397 3.034-.59.226-.044.458-.058.687-.074.05-.004.134 0 .129.092a.105.105 0 0 1-.08.099c-.118.036-.234.08-.354.105-1.643.33-3.288.654-4.94.943-.938.165-1.884.297-2.812.522-.074.019-.152.023-.226.034m-3.43-29.772c.068.705-.1 1.378-.287 2.046-.048.173-.085.191-.264.167-.783-.104-1.473-.424-2.097-.898a.234.234 0 0 1-.094-.242c.106-.659.095-1.32.071-1.983-.007-.186.035-.23.229-.285a3.234 3.234 0 0 1 1.328-.082c.304.04.603.116.892.23.152.06.222.152.222.308v.74m-3.214-4.138c.285-.117.58-.164.862-.242.065.164.037.287.033.408-.018.537-.042 1.074.016 1.61.025.242.016.243-.22.315-.059.018-.118.032-.197.053-.176-.328-.176-.705-.274-1.053-.099-.35-.146-.716-.22-1.091m-13.248 26.51c0 .2.008.4-.003.6-.01.184-.11.288-.296.282-.26-.009-.52-.045-.778-.075-.065-.007-.106-.061-.129-.12a.371.371 0 0 1-.028-.134c0-.384-.003-.77.012-1.153.008-.2.093-.29.28-.307.229-.02.46-.02.69-.008.166.008.252.104.258.27.01.214.002.43.002.645h-.008z"/></g></svg>